/* XPM */
static char *_d70d17bde914ca6b781b351722d4ffftQf7BspDDCQnXpSd[] = {
/* columns rows colors chars-per-pixel */
"128 128 86 1 ",
"  c #3F372F",
". c #373737",
"X c #3E3732",
"o c #3D3935",
"O c #373738",
"+ c #373838",
"@ c #3C3C3C",
"# c #403730",
"$ c #423A34",
"% c #423E3B",
"& c #44413D",
"* c #4B433D",
"= c #51463E",
"- c #51483F",
"; c #3F3F40",
": c #3F4040",
"> c #444444",
", c #4A4643",
"< c #4D4945",
"1 c #474748",
"2 c #474848",
"3 c #4B4B4B",
"4 c #534B44",
"5 c #594F47",
"6 c #524E4B",
"7 c #594F48",
"8 c #55514E",
"9 c #5A534D",
"0 c #4F4F50",
"q c #4F5050",
"w c #545353",
"e c #5A5653",
"r c #5C5956",
"t c #575758",
"y c #585758",
"u c #575858",
"i c #5D5B5A",
"p c #615B56",
"a c #615E5C",
"s c #63605E",
"d c #69635E",
"f c #5F5F60",
"g c #605F60",
"h c #5F6060",
"j c #656463",
"k c #696665",
"l c #6A6867",
"z c #676768",
"x c #686768",
"c c #676869",
"v c #6C6C6B",
"b c #716B67",
"n c #706F6E",
"m c #72706F",
"M c #6E6F70",
"N c #706F70",
"B c #6F7071",
"V c #737373",
"C c #787776",
"Z c #7A7877",
"A c #767778",
"S c #787778",
"D c #777879",
"F c #7B7B7B",
"G c #817E7D",
"H c #83807F",
"J c #7E7F80",
"K c #807F80",
"L c #7F8081",
"P c #838384",
"I c #888685",
"U c #8A8887",
"Y c #868788",
"T c #888788",
"R c #878889",
"E c #8A8B8B",
"W c #908F8E",
"Q c #8E8F90",
"! c #8F9092",
"~ c #939394",
"^ c #989797",
"/ c #969798",
"( c #97989A",
") c #9A9B9C",
"_ c #A1A09F",
"` c #A2A2A2",
/* pixels */
"w3>&@@@@@+@@+@@o@@@;&;;@@@@+o+++o@OO@O@;>0q02>>@;@@%@@@%@@@::>>>>>>>;;;;;;;;;;;@%>>3qwq21>@&@&:@>@;;;::>>>>1>>&;;;;;;;;&;;;;>20q",
"w2wnxixVFmBVs8**&$$$#&&$$$ $  $X######*6>3w0,,,**%66wagvjVnllxsrrijxvvi<&$$&@#$  #o10wq2e>%%*%,wsvvBvi33&&X   o&&&$X$$&&88ekvw0q",
"2qEPClmvYSHEVCbsmspl7rsvppmvvbsreep9j99Vr>326derjweea6a6ee48uVVvaaVssiVlnmsddjrmar6>202vllra688twixVFmZVSkssrj88a8r9688e8r<<8Vq0",
">vPFVZvjnmjlsmkvdHvvkv9rv9SZCFvZDKVSvkzna>3>paje6raivalks8<*6isVVkvvjssVmvmvksVVVNvz>3wPskvsliijai8lkjVnnVVnvjvkvkjnhieke8jjrjh>",
"@VFZmZCmSvjjvvvvsjlVZFnssr8vdkkVVCDvVVknn,2:kkznvavig8<prwij63hxrnis88xrBvnVVkBvAMVe>2wGnlalvVcjuejakjksjjnVBvBlvnvnhvjwkkzkekh:",
"@ZVplFDFVVaimllmdejZFSvvlk8emmZkpaVlVvkZv>>:jbjwvVvayrjjlsx8awrivvvjnjclBVvvVjvvvMVx>>wFssiVvvjMxi&eaklvehijkrvxkvnvtjnhihcBvjj;",
"@VHmVvvVvmvspmVvVkeanrSFvkseVnnlvjjalVnFF>1:djgpi,<ykaxwkMllV3ehsjvjvVxkiscvVjjnjlVi@26DlvavvVcv86uwrivsrshrjvvkuBBAncvrvcvvBvh;",
"@vmrsjlVjsdrdHmmSVvkvnvnvmFvmnVvvkiiifkGP>>:lnnlalvkklkyvxiarahjjmllie,eiknnvBlAjlVj>28VkClrMljwjir8skakvlvjzjxjkjnVnnBhshjcczu;",
"@mPvemsrdivFlvvVlCVSnalmnBBvnvvjVnVNxwksV1>&sSVDMxxjVxljizVVkjhissksevrhrvsvBssrvjvj:2wnjVvBxc8ejiiulxvjsvvjcej8aecsBFcnjBvjuVu;",
"@lmliajr8dkjmvmdanmBnnnBSSBvVDnjkDVlAjrCv1>@dmvjlAjVuvtvllBzeriilkhlskhkt8nVliiVllvj:26mlvvvxijlBijilxvisljlvhlczjhsBvVnvvkzVVt;",
"@lPCVavZmjksakmVFjC8kVVvnBDkVSnkvvAMNvxll>>>kvvvaxjkcvxawjejvrvujhilljjvjivxllVaxVjj:>0mvjllxuxjijzfljxlllixvcnvvzta6reczBvzABw;",
"ovGmvlsjjsrjlvmFFSsvvFnAAnvsFvSAAVVMlxkFV1>&kmjjBlVVVVlijjxiuijxs8jixvsscvxvikvnBBMj:33VxiVBVe8VMutisjiknlvjvviVBVinau8izehvVAu;",
"@jFCZvDDvVniVmsSkllDASFAvvVCSnvAVJAAAlvCD1>>kmsVAiMxxvBVjixBVjtjlnVsvvxujMhvsvkVBBxi>24VlxVMcxxvxjfijcjeVvVcBcljaakajvzzjatekSh;",
"@sZZmvVVVmSvSAvrnVDKFVvvBVaakSDSAVlADVFPM>>@dmmvvMlxixAllvvvjvcwijvnvvVviiissrkmllvi@26mcilxMBrvvcvzivlcvklBvhBjvjvckBvBkjh0kKh;",
"@jTDGmVFFmVnVvnjmmSZFFFFShsVVSVmVAVjanSFK21;lmvVVMBVvllVvkVvvBjljlxveVvBjhuslVjnVvvx:23CVcvvMllMlhjivllvlxsvBhsvhBAVvvBhkVvtjnv;",
"@lFllmKmmlVnDrnVVaVSFFFvSlVASDFFFAFVvVFDN2>:sVnVVjzvVvjMVvlxvvBicVviiicBBv8ivDVBvviy>23mVtcvBVMhlMMvvvcV8lxixksVBkhnvnkvvjvhhnv;",
"@vEFvVVDDsmSkVrDVkkrvksejFvssdDFVVBjvVVFD21>mlsvzzjzBVvAMlMVjzjBjBrsljhe3kswliawslvu>23DvuyilljBvcjekjnsscvhvBvAjhzkvVnBkvBBhLc:",
";m!mSnSVmVmVvvneCkknvnmVnlsVFSLnDDDvisDRP0>>nFSnvvAVVjvvxvVvvvjijklvVkjhtkvrnmksjZFz>26ZMcjvlxMMBcjjkVrkvvzABkBBAvAcvVAcVvBVhFB>",
"1s^UPPPHKHPVPPKSFKPYKYRTKFCPALPYLLPZYEP~E232VHFDDFFJVJMvDFBFVADBBlsjDFDDziVvVZCVFmVz23<GLBVDFADBAvVFVAvvSDFALFDVDBvBmVDDAAFDnPh2",
"0>S/QQQE!EEEETRTRTTRRTTRTRRRRE!E!~~~EE!~u2t33FPPJPJJJJJPFJJDJJJFLLFLFFPLLPJPPYYPPPV20t3uPLPPPLYPFFYPPLPFFFLLYLLPPYLFYLLYLYLLSi2q",
"w0>;@@@@@@+@@@@@@@@;@;@@@@@@@@@@@@@@@@@>2qww32>:>;;>>;::>>:>>>>>>>>>>>::>>@>::::>>23wuq32>>>:>:>;:>:;>;>>>>>>:&:::;::>:>::::>20w",
"221>>>>:>>>>>>>>>>130000211>>1>>1>>>>122330q33211111,,112211233wq022212>>1>2122>>223333322>2>2>,1>111<13qqqq031>>1,,>>>,1>1>>223",
"iittet0<&*&@$$$&@$&10wq2>,&,,13wtuiuuuuuiiuwtuiuy<>%%%%%%%@%%>qww3>%oooooo%&2ue<<>%&%&>>>wuiii8<&&;@$@@&2qtq<;$o@&@&&&&3tuiiihhi",
"~^PPWUZFHmmmps9dspp12q3endsjSFAFYEZVDEEPPEERRFLSDFSkkae4epe94&>33>9pp9r95rr9aVFYmPbnnsCGDYDEGPGlk799s99e<2q2&d97999mmCZZRQ~!/!//",
"KHFFAnnrppdrssvvssSk:38PFFAvVAAAnrsejlVvAnVFDnkVpvVVCmVkja9sru>218llVZlmFFVDjlFDFVCGDFBFABjVnrkllmsjssmaz>3:kmCmFmVBCFCVFlvvlllv",
"kFFFnkkmllVjbldvnnsk@1tFnhzBcvvh8aki486elMVVVnvnejrvkaVnlvjlVlw>>rCVsjvVvkvxliucvVnVFVvMljvlrlapmkvnVBVSn01@VHmmDBkvJFFCklmsl9dl",
"lnFVrvmmkvkClVrvVnnc@>wHVjjvhvcjjjai8i6yiaVVvvVvvjniaVvxVvvlvj0:@rbsueVVjjxvxvjwVVDVVxry86wVkvkvvVknVBvnl0>+CmZFmVBCFBevsllkkdaB",
"rvFBmlmmKmmvCmFVSvvc+,wPFlckBkrj8jjxt,ijuj66vjnVvvVNxaVkxllBnj3:@rmDVVvVVvVviwvi6wVvs8arskyklnsnVllSvBVnv0>@mHZlVvFFVkvlCarknmkB",
"rVVFrmmmZvmvSPVknlnv+1wRvvBvzkkhlvjvjjjiwyajgxlVvvljjMVVVBlvvBw@%rlkmDVDBBjjBl8rakaekllMlkvaakvnAVAAABFVA3>+CJFBBBAAlmlpg988hlmk",
"SkkSklmmvmmZvvFssnvh+1tBlhvzhjknjsvllxu<ijililvVlvjvVxVjvVBVVfq;@emZlkxDVBvVcrilkiywkvlvjkvkrknnkvAvBVncZ3>@CPBFAFBkil9lsdlsi8DV",
"VkjvSmdnVFVnVnVmvvkh@>0FlskvkvvkvkvklMjiiuwlMavnlVVxllvvBVBjvzq:@ymVllVvMMVvjVBjkaaMlVDVvVanjBkVAcVAFlkVB2&@ZHvBAAssvllnllFnncVS",
"FvramlnlvFZVlVSFlknx+>8KvkVvjcVVaklxxxvjVixiljuVvBAVBNVMlBVlBvq;@rCFBzVBMwislVBcakvvvlkCDjlVnVVxl9esrssBC3>%HFFBvMdnlZvZmDBnVlra",
"vklVZmSjrVddlnVVSVDj@>qPSVVvNar6ajjjgVvziu3rijwVlVxrrjDVVVvlAc3;@emVFshjhkhncBvhiMVvjiarikmmnzkkjlshvnSFA0>+RCBncsssVCVVCmnvrmsl",
"kh9hmVnsirlmSvKVlNVl@>wJVzjvrpjeslajlxvlis868r<wvrikkizvnBjvlcw:@emmVjVavhsvVVjvhDBde8kamVlmBk9slvvABl8nS2>+HPCSakkmZFKDlmmlDsla",
"vhkcVmpZrrsZSSVVSVVz+>uFvait6avjjjVvezasVvzz66<j<sVjvkvvvjnVvvq:@sFFVVihlvhgVnvclclkgvluir6iaBksABBnvDvvV3>@HKVlnlskCFCCJBCCFmjv",
"SnVjSdmkmkjvFDFKvVNl+1tFFjyjjvVvnxMavjNVVlvijje,8rmvSkjkikkjlh3:@sFVvjDjdnczvBVvMilvmVAdllsivBmvjAAkFvvFv3>+ULBrdrVkCClZDCvVBBlv",
"svjhvvkvFjsevSFDFVVx@>uAvjlax8kvjstvuVjVrivvaaeh8stvBnhkjnjxVjq:@aCVkvVVnvjBMVzjkdjjvgnllrgvhjAmjzlvBcFBV2>+HVhdVlkk8slvmVFDmZDV",
"kDkhlnZVvVVVsvSFDASV@1uFnjjakskjalzzjk8eajialVrurri8nvsvxnrBVBq:;amVAVmvnBAVivDAh69vrklnnllrAkiBAVvFnFlvv21@UCinBAiCislmdnCZDFCJ",
"FnnijnmmFmDDvleFCDRB@>iPnMljjvaVlMMjwreaaijanvMxvsleevlVjVVnnFw:>sCsVVMAVnhVniVh9aBDVBBmVVnBABlnBVvrkkVnA3,;WFCklkCmmvvmvAVFFCvD",
"jFYnsnZFFVYPdlllVYQF>3wEDajVVVDnAAvankiVlklavVDjjsuiwjFVmZDFKFu2>sIFVFJAFFVFABVhVVDJmClsmDDAFBFZFAFFvJFRJ32>HUCJZBdFCCZFFPRHVFFZ",
"/!~/L!U(~/~~/~~!EE)u303VPnknFPYPPPPYPFPPYYYYYLEYRRYFLiFPLRYRPL3303E!Y!QYQERQQLJLEQEQQQQRQETRRRE!ERRQRQQEv2q2u^^^(!~/~~~!~~~/!~~!",
"uuuuiiiiurttttttui23qw01wuwuiiuiutyttwttwuuuuiuutuuuit<>wuiuu2qww31iiiiuiiiiithiiuiiuuuuuuuuuuuuuttuuuuq2qtq22iuttuiuuuutuuiutuu",
"3321>>>>>>>>>>>>>2230000221111,>,1>2>2,230000333223212222223338qqq0133113>>3:q33223330331>>&>>>>>>>>>>>,3qq032>>::&:>>&>:>::>123",
"q3>:;@@@@@@@@@@@@@@@;;;@;@@;@@@@@@@@@@@>3qwq03::&;>&>:>>>>>>:>>>>>>>::::>>:>:::::123wwq2;@@++++++++++++@++@+@+++++.++++++++@@>3w",
"q><r99mdsdsre9k944495ejvFPJPb74=**=***=*@3wq><84*,4,8evSLPPLDVvlssvFLLAFLLYVPFFvvdg3qw21dHHHddpssrdvZHGdk994-4--<-447r95457d7&&3",
"11smvvjVmnCvjVnlvlvaknDvlMnsklaavmserVme8>33tjVjheisiusisuVVvlmvVVVhvMMvvvnBjkVMVsFk231PFlkZFCZsHZRFbkdvmmdVrdsdlddsldZCCPFnms&>",
"&rFlnvjSmVjVs9diaNSvjalAljklkjCkkalbvMNvx>2>vlsvvBjclitxvvjrxklvBVBvznnhVzejrgsnjnzB>1t!CsrlFJFVCCldldDCdCDFZCmVFmVlssnmCkssJFw;",
"@iHlvSjlVmVSvZvmnylaVjvjjVVknvknVnvVAlkFv,,>ki<szjvnvlujcc8jlxVvvsijtansvjhVlshvBVVF&1uIBnd8nZVSssskvCilmslmFFCZlCklrsinDVnvCFt+",
"@iVjjlkjVknnnvvvSvkxrVjMjAMNkvvVVDvjnVVvV11>klw6lMzjNcfizixiBBVcMhhvahavvvjjjhhsvnBP:1eEPFABmBsssrdvdevnldilkmVCFFvFnCvlslgvCPe+",
"@sPnmVjcvjVSNCFCMajxNjjliSjllVVVvaknnDjvl21:glitqNNgjigjjijlvMvvvjiVhsvhhcvvvAhhhrAL>>e!PSAlkdllmvvvsmjVVCFVmKCvVlmFmDDBmkVlvFu+",
"@lPmvDAvwnAVnbSNvVSVi6tilvljVCAklvVvvsvni>1>jnrj6gvVagz6slBilhBhMvvzhrxvhlsvdhxhBcnm:1wWVnnsrvZFmmvmVmknnDVVFkvHBFDFDVvZDBVkVlw+",
"+leejABviiVlNVvVNvlVvNifikAxVFlvVbvVFnVng>1:kbjzfgwggqyjrBcujkvjsVvj4ahnhxadzkvhvnvn>>t/HSDBvZvBFCvKFPSsSVFSSVFFFFFSFDnmmGmi9Du+",
"@rsit6cVSlvlkVNSvVVkjnljjwVlnCvVSAvANDNFv>1>kMluzyyzaykjrilvxlvvzBseegshMnvxMBnvtvBl:1rHCKZCmkDmlvFVvKFvBVVnmKFmvnnvinVlssmknrq+",
"@edsskteNAvNSnVCVFVvviliv6wNVbVVCVVVnDVAA21>jzMvvljMyryajtfwxxBvcjhimhnhhwsrvsBBctnv>>iWJlpvmvdmnjlbVvVHSnBvr9svkeedsmmlmlnlljq+",
"@evVvjisavvaFlkkNSjvlxjljlwkvVVDVSVVvADVV>,>kvVMMMkljjiwlteirBiajeigajjhrsixhvhBBhnl>>iPsssvvldmvnnkZVKFFj8sVnrsrsmnnnCFCmSFFv8+",
"@eKDjj*&aiiVkNVVnVMAFBjyraiwiVVVDVvvDVVFM2>>lSljyjxifljjxhuixak6svxvssnjzvhBjhijvanl>>ePvvvmCCmvlSVVVVnVvjvs9ramVaDZnllDmClLBvq+",
"@eZevjiywl6avNvjDVnFVMVjgMli8ispvVnDNVFFD31>nVvirlgizjfljf2ua66khjcBjlvvnjzvvxxmzBkk:1tHFvlVVslBFFFAnFvmlZvvmVvrVFVBnVnFVCDFJBq+",
"+rksllxlklvjnijbvVvvVvvVjMjMvsar,e9lglSJP31>vjjljvVklxiuvjijrwaixvnvMvvMchjavwa6khvk>>eURnPnsvFFVVFFjidlDVlllmZVslFSVSvvCDFJFvq@",
"@emkvMjuaatwlywxVCnDSViVAVvjjsakkpkailVMJq1:nVzMMlVzvzvfifxljjrxaMBMMvnljnBhhiih8edv>>w~ZFZslVvLLnFVnVvlvmnZZVZmCkmnFAKAmLFFFV8+",
"@9nVvVjzlpey<la6DFDDAvVVBBMMjljaivvVlajuJw1>CvjzvxMjzBjziiiawxljiacvvjMMvhczscvAhr8l>>t/PHvmSdBFSSBsnlVvVDxslVSVSVABBFVLJFJFFSw@",
">rHFvVFvsjVtwlvvevDSFVDVVFAjDkvmVakvVsJJDw3>JAitvvvjVMMMBiaijjVvzzilBvxvvMzvVxsshrkV11t)ECkmFFLLLvFFFSZSDnnDLFFFFKvSFSFLlFFFHFu:",
"33PRPPLVPJLVvkJJCkSFTDVDVzDFvnGYFPYFPPLRL103xPJjvVFFAFAJVBxBDjxVDFnaFVFMDDsvMFVFFFmj30>)UEUQ!EEYER!EPTPEEEERPEPYTYPYERYRQERQ!E23",
"823llvvvlvvvMBVVVVVijvvVAVvclVVVVNVMVVVv33wq1fMMNVMMMMMvMvMMBBvBBBMvajxMzMivnzBVBvh20w31VFZSAVAFSVVDAVmnBBnBBBBvnvBBBBVBSSAAB02q",
"031>@@@+@@+@@@@@@@@;>>>>;@;@@@@@@@@@@@;>10wq31>>>:>:;::>>::>>>2211>::>:>:::::;>:>>23q001:@@++++++++++++@@@;;@@+....+..+....+;>3q",
";o@o...X........+@>20003>;;;;;;;;;;:@;;>&&>&>::::;>@::::;;;>:2qww02>;;;;;;;;;;;;@::>>>>:;@@@@@@@@@@@@@;::wqq:>@.............++@@",
"$$$&$$##$#$#$&*jkj8>3w03cVBVMvccxvviwiew*&&&&&&*ehwtzvnBVBmghq3qq33javVVVVVBjh0-88iw0-rssji8--33*%$%%$*%>3w3:>*&-*8w*&%**&--%%%$",
"pp9--mrpsprbpainRUHa>32FmjLDLFJDlrara49svnsissgjVvFAnVBDvmVCFmq03wUPDvVFLvmlFmvlmZakaljplZaakmjkkrrsdrrlr>3>rHHGPEvnZFklplmllp9b",
"VCmVajVGGVFVmZlDnlUF;2uRDBDVVcr99asxaijj6vAVnVAuejVVAjvvmmijnmv::BUAnVjVcallpFCvaskrksvMVvsvlkCzVVCVnVCZF0:;H~PHJnLGHHPZGZLGmHHm",
"HLPZVFbjbmFLDVjVVjFU@>iLlM-wsisrisxxrvsviMVVMBvcMBBBVBVzsdVVAVv>>BFFDjBlksvhar9eVjkVVMMvvVAVVvCanvVAMAAFPq1+~FJHFmsvaVDFFJDVCVGG",
"VFFCLCFjjmiesjBvvCnC@2wLj-ehrillmxrvvVVDBBsjBBVBVnvMnVBcvVVVVLM;;BVDVBvvmdlVnjvevjshzvkzVnksnCAvvvMFAlszm0>+HPDmmFGmFHFHVFvCZGZl",
"CPmZZmVVvFkmnBVBnFHL+:ePVhkjhaahManmhcsiczVvvAvnjvicvkxa8gzjVJv@;BDDcjjjVVssBsvavMvnAMMiskAvVVMlMvjMMvVFF0>+^AVVsd=9i-sjVFDnFFGG",
"LFFnmFmlPVFLjvDLVLZF@:wRlVaalallashMAcVcvivAjhznBvVckl8iririsks;@cVna9e8ijjvnvihizvCzvvVjVvVnsVMvCziAFMlPw>+EmiklVlVrrrweuGVFGmV",
"FFVPHCLFmFnDDvvFVvsm.2uFshpVBvhlvmMmmBzvcjMvMcMBBAssrshsahBvjnh:@ilvsjjvdjvpjjijvzAMDzVVjVVVMvcAVMVMVVVZLu>.Hnkp9enlnkd686-vkmFD",
"FVZCFVVFFVBVmmjnlFVn.&eZmBvljvBMMvsrBnAVvMAcvvVhhVvhVhkVvannnvj;@elvskvkljavnnDnkvvjvjcMzvMAVcCVVMMVCnaiGw>.HGlskllrFFsmVaasivmL",
"FmGFFFLFLFDnLFvV9aal.>wvmAVMlvBVxmkhzvznBhvjzcVhvsimsrjvvvVsjll@;hrkavVnkjVmVvssAzMBMihAMcMDVVFVAAzr6ss8V0>.HClnFGVkZCBkVjesbsjv",
"rVCmVFZZBBFFFlsdVCvj.>wmevjarrhrsvhvVcmMchvABzhAvhxvaxsxesnghVh;@nnavCaaevvvBkCnvBVzhvkMvDvDVVVvAsaw88nZV0>+HHllvpVGLVssjaaj9bas",
"djZFCGVFPVVFCmVFFCCc.*qGhjsrMzjhrxMBahAAMchAnicvvvlhVVssssrr6gh;@cvjnkkvVnkrVCvFzjVVVvVchiwszMnlskiaesjri->+JPkVaZnnkkknCD9inVlm",
"masFCFFPFFVmhmjlsFFc.>0BmjrBxvVcxjhBvBizAchvnhvvrsaxjhhdrhkhijt;;knmsanVBaVVlavBMvwMcCaajirjv-lvmmkmkvvMj:>+PGkknVbkbFCVvikbkjkv",
"8VllZLFLFlLFFPvZFnVn.>0ZFhnivmjjvvAMcsnzDzhVvcnavessx6kkMevmvkt;@jGkncvhvVcDCVcCnvckhr0nVnzsi0a9aiimZVkVD3:@HpClmmCGVmvjVjnFVjks",
"s8lvVFZZVZPFVFbVLFDn.>6ZvznMvnvvsmBBzAvBcnMazjr8ijvjr6ixVdhBvvt;@vGkVakikCDCcDvVVVh8lvki6vhrku-irknaskvLM:::CZvkVFCFVCnVCvVFCmZd",
"vCjrVVFFFGDVmmDFFPAn+>0CVBjlrMMahxVmzVjvjVjxvjsbsVkBjkaBdvlBMAu::CnkkrkeucVvnVnkzhzjcnnMMvh-hajw0nAVhVMvD2>+VdcBnZVLmDmVjmBLVGCm",
"PVshaaiLPPFPLVDFLLLn@1wAVzBbAVrvvhvAAVVMBhxlaVxVVVlBjsrkvBMkADv:>hVrllaVksVnFBCvrinvnnvVMnhkvihjsrbmVVnVV31@ZPVvvFZZnCFVVsmmmFFL",
"PPRRBFVmUURRPRHIPE!V;33ILMDAAFFJFVvAmADFBsvFmVvVZDCVDVDVVCFDLLi22rHVnFGFLnllVVvZCFnCFPJDVvVLvGGFjaDLVFLLL23>ZWJVFFHHHRYRPPLHRRHW",
"!EW!~))RW~))))(//(L13w3iIEHPPPPLLLLPAlVzsssVFDbFFPRERYRPPPLYRv2q01vYLYPPLELHRERRYYLLLQLELLQLHELLPJLIUHLPq0w3*H/~~~/(!!EW!!/~!!!W",
"+@+++@@++++++@+++@:2ww03::>:>:;;::>;;;:::>;>>;;;::::::;;::::>30ww0*:>;;;;;@;;@;@:@::::::::>:;@;;;;@;;;;>30wq3;@;++@OO+++@;O@+@@+",
"03212>2:>1>12::2>>20000330222211332222230qq0011&>>>>>>&&>>>&>22330:1>>>>>>>>>>>>1120twq0:-:0111111111113300032&:>>3:::>1>::**300",
"w02eweurhuuuuuhuihhuuwww3&1*34333wtuiuiw30t022ii93,*;%&&&&o&&%o$+ooo  .oooo%o%o%%:>2qwq:33:->%%%&&&2*1&%&&:1%%%%>*0*w3*2>:&&2:3w",
"029iriaVJFRJJFLLRLmblasMFmsjjFvnFLJJDLRIV3q2i`~DmEGbldpsvsbGldp599-99pp955p-5p99pdk::q3VHJZmkprrsprmsanbmlsvZnaalbvjjjFFFlsash:0",
"-8siwrjjw9rmiklAlAVaVhlBsvmMBrFBhDVcVasvHw3;L^HJFCrbFmmmCBd8mZmZZkkpFpskCCGiVFCjdmZk;2wHnsaslAVDMmVvhajJLDBhlVDVFCsvjeejCVVCnlw2",
">avsjuhMa0ahshwenhanBmVhMzVAMBMMBcMvzp6mmt1@RJCHKkmVmmlCsFnkdsmZmFHHFnGDGVGCVPnFVmGV+1uFVmClVVcnmAsrljviVBMVjlMVlvjhvslwjVvDvFh:",
":umnvhhjawrje69040VjnVMMVmBBMzjBVlvhheiime:+UJFsmdsnvmmmmsVdSCvrVLZCZLVVFVFGFJGvnVmC.1rCvijvkirvMVzzaMVvMeVBBvVvklVrnVvjhlBlBFw;",
";annBjhjjMhljrcjeajwlvcMvvBMBVBclhjjikijlu2@FadsmmCsCCVvnVlZmFmnlCLDLnCGDDDFDGJLCLDV.1uLlljlhCVVvvvVnVmjjBhBVVMBvnmnjjhhselknDu;",
";rABvvchlvcaBMe6awa*69zhvajv96rMvjjcllmjLu&+UbnCClmBinnVDDnkmmSCvaBFGFLVcnsackHLGGPDO>uYlCvVnMVVVAsrhxvaaVjvhBDVVBmmVjvchravvFj;",
";rnjcvVcccchvh9rwarejzhh0airhr9w9rBMjlVFRi2+^VmnmmGCmjkPmnnmFmDSnCnVLFVnksMGVcvLvMPD.1uHGVsAVMVvrhAVmlxBcVMwkvmVMlDVVVvMBBBBVFh;",
";sVVMMvjcjMMV9uaeehlihuaeivwhsh9-h0hjVjnLt1+HnjnCmFmmDmvZVnCFZFFFkDiFnjmLCvrr8eevnCFO>uHhvlMVrswviVhVvVMh9havvVcnnlDBVBMvjcBvFM;",
";jnjajjMBvjcjeavraazhi-*096hjajhthhhrwelJu3%HHFVZmFKSnlaZVlVBKALGJDDilZVZVnVVsjeaLGGO>uCGkcicvCvhrzVsvVjalhMhhcVvVahVlDVMnvsVLl;",
";jVVjVvvMziaajckkaccisjkee3rkkkhhzjakkrclt>+WCZlZZmFGZZmsLSKKFKFDVmlCaDvVhmvxVnVVVLL+>rGViVFvsxansaVjjcaVvchjMhlraar9urjcMcMVAv;",
";nVDnBvcMjkkvjcjaciajijiniiukVvhahchijkBFu1+~UGvlmlCFCJlkFlFSFFFVDdldmDVFFGvmVArsDFH+:iFFv=<9avivMjsscjMvVcMMjdr9hnarrr**0azVFv;",
";nVjBvMhiaknckjkvik0cknvjijziieBvihvjhvkSu1+HCFmbFCmvCFDlsnBkkaVZDdvDCavsZFVCFxVhhnY+1rCnirvtiVvnvVjvjmAMMzjcaksarzarl8ir6438Fl;",
";cFVVBBcrkcVVnBvvcMawieBkVkMkkhevj<esvBvFu>+~FnZZZCikBdlrk9lnkv9r4nmDLnGvCGFDxVhVvLY+>rmVsvlhhvmMmvMzVjzMBcjMlhilarskkh9jwt4rjc;",
"@hVmVklvvjsjjnvVvnza0eahjcukikuejrektvvvDe>+WCmvZlmFnFCmlBPmmssvDDCLgDmVFFDmDDVFhMEE+3tCdBVgvvghillMMvhauatzp8hjvjejcjjiheeubmc;",
";hjlnBBjhwkBjncVnnVvjiwaakvziikvaiikjzzcZw1+~PCVCVCDVvmvmsklmlZFGmVDnFGGLDHFLFFAVAR!+>wVVzmVvhsvhwvlamvnrthlpjeknh9hmVDVaaeeril;",
">alejvlVnicvVcckccjjaiswjvjiMhMktkvjBhvcY82@^UmCCmClFvmFVAVCmmKKLFLDVFJGHGFFLLLJVFH_+>eDFVkhhMznsvbjhiBhmahshlcajnnajjjBvhjajcj:",
":jlsarvDCksnDCVDVvnCVBCCnDhMvAMjjkBVkkzvJ33:UHWCdZmZZYHURSKFRPmFmHHYRLYnnnDmLJRLFV!E>3qIHvVCABnAVvVVVVJVlhnmmVDDFnhmFAmVmJVlBVh2",
"q3VRCcvFHRRLFVLLPPLLLJJFLLFLPPLLPRPPRPLFi2q2u__)~^/^!~/~~/!/~~/~((()()~!//E(/())/FC62q3AEIRLYELLRERRLQLLLJljVEUIPIRLLIRLLRRIEJ20",
"t02hhhe0huiiwiiuuuuuuuuuwuuuuihhutuuuuhq30t021iuuetwttwwwttwtttturuiuuuuuiuuuiihia21qw02qiittiiiuuruuihuu0&&whiuuuuuuuuutuuuu20w",
"003222&322:3222*:30030332:223:::111>211230q032>:>>::&:::>>::>123322:>>:>>:>&::1::>20qq033>1>1111:11::22333qq332211:222&21:22:30q",
";;;;;;;;;;;;;;;;;>:3www3>@@+@@@;++o@+@+@@@@@@+o++++++++.++++;>3qq0>>@@@@@@@@:@;@:;::::::;;@%@@@@;;;:;;:&30tt31:&;@;;;;;&;;;;:;;;",
"smnvlmVVBFERHFVds9*>ww3o-=--6---9544pslE/~Emdpp99-===========&>08>6--=-**-4rrxssdsmVHVrsmdrs9546-6=-46-823w02JFvbrabvpp89rpir6p9",
"Vlj-i9psDmFCVVvmBFa-:0>jFnnpeprklkvvsPBDFZCld99VVssds9sdsrridp>>26smVnvvhismZVmrkjvBVvnCssFFnssekaeaerkna231VmnVBJa8ilaerprmaaah",
"lcnsvkehrhaBnBkVcsVh>:-ZGmivavBvrnKljvvnSCbmmsjVsZVvFVmVDFmnVvw;:hmvAannDAMjrljAVFnaVmFmvVkssvjgamvnllzll02>PFbaVlrjjlBjjjvrjaMl",
"vvvkhjVjBiujVVnmknBh;*0CVasZFnvvkSjBnjjVlvVdmSZFVCVmBnFZCDLFlkw@@smvVvDDVVvmsVdiihhvmVVVxVCVmvVvajVBvejjA32;RFVBzabjVajVmlrMinvh",
"jvnvvvVBvviiVvxVjCDj;:0HDkmVAPMvkSklFh8sDvnnmFFnCVVFlVDFVAMDFzw+@xmnvMVAAAjvkvsMVhhavAVkVFAkmnknFmVxkxijv6>;YGVvjljBlvBjjlvavejc",
"VAAVAVBhBmghndvVmmVh:26IbjaalVVvavvzh8svmvVmSFmmVDlsvJDVVJVMFVw+@xmlAhvVvMkhnmVVcBBvahnAFVnvVVVFvsnvxnnBB01;MVvVlBljMvlmhvmDVvjh",
"zjgdeijVhjhshverhnDj;:6CbFVJAmVlkvAvnvktvvdvSZDDCmBDVFvFFFJVAFt+@vZmBMBVBwinvVhnVchihhFVVgnVAsdinvvhxVvjF31;VeVVBMbVvMMvhsVDMBjh",
"vvVvhataewvta9kr8vFc::-mVMDbjahlnVjakhvhmsmvClVnBmJFMFALDDVFDFi@@dnmnznVchldiasijninhMnnkkVvskgvAVVVVsAhA3>;VesMnvVVVAVlMllvMBMh",
"jrgkVVjvjaMhssmsneBB;>3CVFjjscnzVCkksha6jvnVSVSvVFJDVJVFFCGFFVu+@kDVnvjBhskxAiVvnvzhvVssFvVkgnnvVDMAzBvnB32:bs9ijVMmABMMjBVVBBBh",
"nhvkxsVvheihskhdnmaV;>4GdjnBFbmkmhnvBckh,mnnvKVSVFFFAVFFDCFFFBh+@xFmVDMesnVMxVvnjBMheriwvvVkVdVMVDVDDDMDLq1:VrishrvVVVABBVvVVMjl",
"kVVVnhhjhaksvxVChncc;>0bmbbDMbkmVlilnkhkeiSnSKVKkvAVBmr9<rsjlMh+@vndhVVnmkVAVVAABv9&<<ervmnsVFVVBBVDABDVFq::Ca8r9ajrVBAVVAMVMzna",
"nVFvvvsjvv8iismrjBFv;>3bZFmVxlmAVnVkvAsle8lmSFSZFlsrrsvFs9ggaJi@@hllee8rVvDDABBh8=6ah688i9sVADnAMnvnBvDvV32:nv68jjnjrjVAVMABcalB",
"VnVvmnvniwvsxvnhvVBv:>4ZVnDVmVFFVAVvrkmlng8smDCVgsvDVlsiVedVsnt+@gFVaBv9sldhjxdrrsrg4rwvwseVmAmFDFAAVVnAP3>;Vbiishi9*-&vVVVBjkbV",
"VBi0vsivvzhvsssvBjjB::6DFFVmsFmVcAVnAvVckis86sVZmlDmFvmmmVzmnvt+@svdsgiiexVvsge8asissia66raxVVVADvvVADVAP31;dMsiwzlvh0w4uMVjhrvm",
"vnVMnnVFBBvBAhdvxmaD::4mbFFFJnFJLFFVFvzcDsvvisnvCVFDVsCVVmVnAFi@@aGFVjvga869avir8avjmvhrwniii8VAVmADxwvmJ31:lVVrrsvzzzhjurMzxsnM",
"nBVrhnVgBhccanjVjvhv:24mV9mazFVFAVvFFFjklDBc9kiBFVFmnCZCFJFAFDh@;kFvVVMnmghlVjsmghnvVihVwvjvvhvsmMVmxBiaV32>mVsVah9lrizwjww9mAVm",
"vnAvjnBDBvnBBVmAVAFc:30GFFvFnajiisrlVLAVvvlmBBvdlFJDCFJJADAJLLz:&nGGAvhFnlvzxvFVFAVDiBAMaAVnDvchmAAVVAsVD33:DVDBxjvvhjzzaraa9bDA",
"FLVFVGLDJGJDVLGVHRRh23:LEELPIPIULRYFYJYRYPELEDmGVGFJPIEEQLYE!!q30qEERLFFJHJLFGHFLLFLDJJLDLDGFDMrmJHLJPYEF102dRLJPFFPJJJvAxhFzhVJ",
"wvBVBBAAAVVvhVAMMMi:0w3&xmMvvMvvvvvnvBBBMBAADDAFDFVVdVDDADDFDq2qq3wVVMvMnvvvvvvccccMvMBBVVABvrjresBABAVv20w01iBMvvMvvvMBBBzjMj64",
":>>:@@@@@@@@@@;@@:13qq01;@+++++++++++++@@;;;@@@+@++@++@@@+@;:23wq03:;@;;@@;@;@@@;:::::::;:@@@;@@;;;@@::&2qwq31::;;;;;;;;;;;;::::"
};
