/* XPM */
static char *aa211610b7c84481dc4c80cf9341c416i8junyL9tlr0RlUM[] = {
/* columns rows colors chars-per-pixel */
"68 64 232 2 ",
"   c #0B0C0C",
".  c #070B08",
"X  c #130E0D",
"o  c #0E100E",
"O  c #12110E",
"+  c #19120F",
"@  c #0E0E11",
"#  c #0F1111",
"$  c #131313",
"%  c #1A1513",
"&  c #151A14",
"*  c #1C1915",
"=  c #151519",
"-  c #1B1C1B",
";  c #18181A",
":  c #190D17",
">  c #231B16",
",  c #231D1A",
"<  c #2B1D19",
"1  c #261916",
"2  c #301E19",
"3  c #24110B",
"4  c #1F251C",
"5  c #16220F",
"6  c #23211D",
"7  c #2C221C",
"8  c #26271B",
"9  c #33231C",
"0  c #38271E",
"q  c #1E1E21",
"w  c #251E26",
"e  c #261F31",
"r  c #1F2223",
"t  c #242322",
"y  c #2C2522",
"u  c #2B2A25",
"i  c #2C2C2A",
"p  c #28272A",
"a  c #332522",
"s  c #342B25",
"d  c #3C2B23",
"f  c #332D2A",
"g  c #3B2A26",
"h  c #34322D",
"j  c #3C322C",
"k  c #332B35",
"l  c #2E3334",
"z  c #3B3534",
"x  c #3C3B3C",
"c  c #373737",
"v  c #2D2E2D",
"b  c #412E25",
"n  c #432E2A",
"m  c #462B26",
"M  c #44332B",
"N  c #4A352C",
"B  c #4C392E",
"V  c #453429",
"C  c #443933",
"Z  c #4C3B32",
"A  c #433C3C",
"S  c #493935",
"D  c #523D34",
"F  c #533E3A",
"G  c #583F3A",
"H  c #523A2D",
"J  c #3F443B",
"K  c #4A443B",
"L  c #544136",
"P  c #55433B",
"I  c #5B443B",
"U  c #5C493E",
"Y  c #584337",
"T  c #504C36",
"R  c #634A3E",
"E  c #674B3F",
"W  c #3D3E42",
"Q  c #373E44",
"!  c #4B3A47",
"~  c #3D4348",
"^  c #3F4851",
"/  c #434243",
"(  c #4A4848",
")  c #544C45",
"_  c #5D4B42",
"`  c #574A47",
"'  c #5B534C",
"]  c #59584B",
"[  c #484D52",
"{  c #554C53",
"}  c #4C5359",
"|  c #585757",
" . c #4E504F",
".. c #634C43",
"X. c #644C45",
"o. c #665246",
"O. c #6B5245",
"+. c #65534A",
"@. c #6B544B",
"#. c #6C594D",
"$. c #73564A",
"%. c #74594C",
"&. c #735748",
"*. c #6D5B54",
"=. c #655957",
"-. c #735D58",
";. c #68645A",
":. c #75675B",
">. c #73634A",
",. c #4F5861",
"<. c #565D64",
"1. c #5B636A",
"2. c #5D6872",
"3. c #696766",
"4. c #746B65",
"5. c #797469",
"6. c #666D74",
"7. c #6A737A",
"8. c #727373",
"9. c #787778",
"0. c #756F71",
"q. c #877669",
"w. c #847B73",
"e. c #896C66",
"r. c #8D8175",
"t. c #8E867B",
"y. c #8D877B",
"u. c #91897D",
"i. c #98897B",
"p. c #8F937C",
"a. c #A2917F",
"s. c #A18E7C",
"d. c #6C7982",
"f. c #747D84",
"g. c #867D80",
"h. c #79838B",
"j. c #7D8993",
"k. c #8B8A85",
"l. c #8D8C8B",
"z. c #858686",
"x. c #948D82",
"c. c #928E8A",
"v. c #988E82",
"b. c #969085",
"n. c #999286",
"m. c #94918C",
"M. c #9C958B",
"N. c #9C988B",
"B. c #838D96",
"V. c #87929B",
"C. c #9C9690",
"Z. c #9E9991",
"A. c #95979A",
"S. c #8F908B",
"D. c #A39483",
"F. c #A4998C",
"G. c #A4998C",
"H. c #A49C93",
"J. c #9EA096",
"K. c #A2A38C",
"L. c #ABA49A",
"P. c #AAA796",
"I. c #B3AB9B",
"U. c #B5B89B",
"Y. c #AFB296",
"T. c #8A97A3",
"R. c #9A9EA4",
"E. c #939CA4",
"W. c #A09FA3",
"Q. c #9DA1A5",
"!. c #9CA5AB",
"~. c #96A3AC",
"^. c #9BA9B2",
"/. c #A3A5AA",
"(. c #A4A9AD",
"). c #ABACAD",
"_. c #A9A8A1",
"`. c #B5AEA4",
"'. c #AFB1AD",
"]. c #B4B3AD",
"[. c #B9B5AC",
"{. c #B9B6A7",
"}. c #A3ACB3",
"|. c #AAAEB2",
" X c #ACB2B4",
".X c #AAB4BB",
"XX c #A9B4BB",
"oX c #B3B4B3",
"OX c #BBBAB4",
"+X c #BABDBB",
"@X c #B4B9BA",
"#X c #B0AFB4",
"$X c #C0B9AF",
"%X c #BFC3A9",
"&X c #C6C6AA",
"*X c #CBCBB3",
"=X c #C8C8B6",
"-X c #D2CDBB",
";X c #CED2B5",
":X c #D5D5BA",
">X c #CCD0AF",
",X c #DCE0BF",
"<X c #ADB8C1",
"1X c #B3BDC2",
"2X c #B9BFC4",
"3X c #BCC4C8",
"4X c #C1CBCD",
"5X c #C9CBC7",
"6X c #D5D3C3",
"7X c #D9D4C5",
"8X c #DCD9CD",
"9X c #D9D7C8",
"0X c #CAD4D5",
"qX c #DDDCD3",
"wX c #DCDCD9",
"eX c #CECFC8",
"rX c #E6DEC8",
"tX c #E0DDD6",
"yX c #DFE1DB",
"uX c #EEE4CC",
"iX c #E7E1C7",
"pX c #F1E5CE",
"aX c #E3E4DC",
"sX c #ECEADE",
"dX c #EAE5D5",
"fX c #F2E6D2",
"gX c #F2E9D6",
"hX c #F4ECDA",
"jX c #ECEBE2",
"kX c #E6E8E4",
"lX c #F3EDE2",
"zX c #DDE1E0",
/* pixels */
"kXaXwXzXjX5X=XeXjXjXlXlXlXlXlXlXlXhXhXhXhXhXhXhXeX0X3XB.0X0X0X0X0X3X| ' =.=.=.@X0X3X0X0X1X3X3X@X%X+X3X+X+X+XOX=XOX$XL.t.k.u.u.u.y.r.u.u.",
"aXaXyXaXaXjXkXkXjXjXjXlXjXlXlXlXlXhXhXhXhXhXgXgXeX4X2Xg.3X3X0X3X0X3X| ' ' { =.oX0X0X3X3X1X<X@X3X1X1X+XOX+XOXOXOXOXOXL.t.t.u.t.t.u.r.r.i.",
"kXaXyXaXaXaXaXjXkXsXlXlXjXlXhXlXhXhXhXhXhXhXfXgX2X<X<Xj.3X<X3X<X3X.X] ` { ` | @X4X3X3X3XXX@X@X@X@X@X+XOX@XOXOXOXOX[.P.t.x.u.u.t.u.u.r.u.",
"wXaXwXyXaXaXkXsXjXjXsXsXlXhXhXhXgXhXgXgXhXgXfXgX1X<X<Xd.^.<X<X<X3X^.| ( ` { | #X0X3X3X2XXXXX@X@X@X@XoXOXOXOXOXOX[.$XL.u.u.u.u.u.y.u.i.u.",
"wXaXwXyXaXaXaXsXsXdXsXsXdXdXhXsXgXgXgXgXfXfXfXdX.XXX}.d.^.XX^.XXXX/.3.( ` ( { #X3X3X3X1X|..X#X@X@XoXoXoXOXOXOX].[.OXL.y.x.x.y.u.u.u.u.u.",
"tXyXwXwXaXaXaXaXaXaXaXdXiXqXhXgXgXgXsXgXfXfXfXuX|.^.^.d.E.^.^.^.}.E.| / ( ` { ).3X2X3X1X.X.X.X.XoX XoXoXoXoXOX].[.].L.x.u.u.u.u.u.u.u.u.",
"tXyXqXqXtXaXaXdXaXdXeX9XrXqXdXgXfXfXfXfXfXfXpXrX(.~.~.7.T.^.~.~.~.V.| / ! ` { |.3X2X2X<X|.|.|.|. X XoXoXoXoX].OX[.[.L.y.x.x.k.u.u.u.u.u.",
"tXtXqXqXqXtXtXaX%X6X;XqX:X:X:XiXfXfXfXfXpXpXuXrXQ.~.~.6.j.~.j.~.E.V.A x A K { (.2X1X2X@X}.}..X|. XoXoX|.oX].].].].[.L.x.x.v.u.u.u.u.u.u.",
"qXqXqX8XqXqXyXeXP.Y.%XaX8X;X=X9XpXpXpXpXpXuXpXrX~.^.j.2.j.~.T.T.T.B.x A A A { /.1X1X1X.X/.}.|.|. X X X XoX].].].].[.L.k.u.u.x.u.u.x.u.x.",
"8XwX8XyX8XqXyX=X%X;X%X:X;X&X:X:XiXuXpXpXuXuXpX7XT.j.j.2.h.T.j.j.V.j.W x A A  .!.@X<X1XXX}.}.|..X). X'.'.oXoX].].[.[.L.x.b.b.x.x.x.u.x.x.",
"8XqX8X8XqX8X%X9X=X9X9X;X>X:X,X%X,XiXuXuXuXuXuX-Xj.j.j.d.d.j.j.j.B.B.x z A A [ /.<X.X<X.X}.(.}.|.|.). X].].'.OX].].[.L.x.x.x.v.x.x.x.u.x.",
"8X8X8X8XqX:X%X=X%X;X>X%X%XU.>XU.>XU.uXiXuXiXuX-XB.j.j.d.d.j.j.j.B.f.W z A ! ( R.<X.X<X}./.(.).).|.'.'.'.'.].].].].[.L.v.b.v.x.x.x.x.x.x.",
"9X8X8X9X8X8X9X:X,XU.U.:X&X&X:X>X&XI.uXiXrXrXuX-Xf.f.j.<.7.h.h.j.j.f.x z A A ( R.@X.X<X}.R./.).).).).].).].].].].].[.L.b.x.S.x.x.v.x.x.x.",
"9X8X9X9X9XeX8X*X>Xa.U.:X:X:X&X>X>XU.uXiXrXrXdX=X9.f.f.<.2.d.d.d.f.9.c z z A ( R..X.X<X}.~././.).).).).].'.].].].[.[.L.b.b.b.b.b.x.v.y.y.",
"9X9X9X9X=XY.6XY.>XY.%XY.U.,X>X>XiXiXuXiXiXuXrX$Xd.d.f.,.2.d.d.d.f.7.k h z x ( R..X.X.X}.!./.(.(.).).'.'.].'.].].`.[.L.b.b.b.b.u.x.p.y.y.",
"7X9X7XqX'.P.:XK.&X>XU.{.K.:X&X&X>X{.&XpX-XI.`.H.6.d.d.,.,.d.d.d.d.6.k z C z ( R..X}..X}.R./.(.(.(.).'.'.'.].].`.[.[.L.b.b.b.b.b.b.u.x.y.",
"7X7X9X=X&X-X=X&X*X;XI.{.J.5.4.;.] ] 5.K.5.) n.K.1.6.6.} } 7.2.2.6.6.v j z z ( R.<X}.XX}.Q.Q././._.).'.].].].].].`.{.L.m.n.n.m.v.a.u.u.t.",
"6X6X9XK.{.;X-X-XY.K.;.( J h h i J K ) h ) ) r.L.} <.1.^ } 2.2.2.2.3.v h z z ! R.}.}.}.^.R.W././.).).'.'.'.'.].{.`.{.L.m.n.n.n.v.b.b.b.y.",
"6X6X-Xp.K.%XP.H.:.) c h h i u u 4 u h K ) K k.H.[ ,.1.^ ^ 2.1.1.2.<.i f z z / R.XX^.}.R.R.R.Q././.).).oX].OX].[.`.`.L.D.M.n.m.n.M.b.n.b.",
"6X6X$Xn.`.P.;.K h i u t 4 4 8 t 4 8 h z z z N.M.~ ,.,.^ ^ <.,.<.<.<.i f j k / A.}.}.}./.E.R././.|.2X@X_.A.L._.`.`.[.L.n.n.M.n.n.n.n.n.n.",
"-X6X;X{.k.T l u u u 4 ; - - , 8 s j V C K K I.b.~ } } ~ ~ 1.} ,.<.| i f j j ! A.(.^.(.R.A.R.R.|.wXkXyXQ.3.5.9.`.`.`.L.n.M.n.n.n.n.n.n.n.",
"-X6X_.;.h i i t t 6 - * * , y d C L L ) K 8 ] | W [ [ Q Q } ,.} | | k a s k W A./.^.^.R.V.A.f.} | <.z.W.k.8.3.L.{.`.L.M.M.M.M.M.M.M.M.n.",
"7XH.z u i u 4 4 , q * * , s B L L L P L s u 8 x c x [ c x } } { =.4.=._ C s ! A./.!.^.E.B.A.6.c /  .9.Z.k.5.;.N.`.`.L.n.M.M.M.M.n.M.M.M.",
"]./ i h t 4 4 4 4 * & % * y j L U U j 1 7 7 , 6 u p W c z 3.{ { +.F F Z ..) / A./.R.R.E.z.A.3.Q ~ l 4.H.x.4.| u.I.I.P.n.M.M.M.n.n.M.n.M.",
";.z i t 8 , 4 , ; $ $ % > 6 9 U T V 9 d V L d 8 s u u * z ) L P ` ! m m G @.=.g.R.W.R.A.B.A.3.c ~ u 3.H.b.4.=.y.H.I.L.D.M.G.M.M.N.n.n.M.",
"h y 6 6 6 6 > - * = $ * + % B T d B Z L Y T K 0 8 z h 7 P Y M m G X.N m G I +.-.4.l.W.A.l.c.<.c / i 3.G.n.:.] y.F.I.L.D.M.M.G.M.N.N.M.M.",
"8 8 7 s j f y * % & & % + s V 0 L L L L V b 0 2 % 7 f d e.e...G D G X.e.@.E @.=.=.-.0.l.k.c.<.k x i 3.N.N.4.+.r.D.I.F.D.G.M.M.M.N.C.N.N.",
"h s j K f * % $ ; * % % * 7 d U R R Y H H V V b d d 9 N Y 0 D X.H m G X.X.X.X.X.+.-.-.-.0.m.=.k J u ;.N.N.:.' r.F.F.F.F.C.G.G.M.N.m.N.N.",
"s s h 6 + + % % % $ % % % 7 ..$.O.E E E E E E E I D V I 9 3 g G H N H R E I I X...+.-.-.*.5.| i J z ;.F.N.:.] w.F.G.G.C.C.G.C.n.M.C.N.m.",
"8 > + O + $ $ & $ & ; > % 7 I $.&.&.&.%.E &.E E X.I H I M 0 n N S N H G G G E X...X.+.*.*.-.) z ] 9.G.u.b.:.' r.F.G.G.G.M.G.G.G.N.N.m.N.",
"y % + & & $ $ $ % % * % % < D O.%.%.%.%.e.E E E O.E Y I D g g g n Z G G G I I X.I I ..X.@.@.+.) ) y.[.) +.4.@.w.F.F.G.M.M.C.C.C.M.N.m.N.",
"> 6 6 $ $ + + + > % % > > 1 D @.%.%.%.%.E e.>.e.$...I G N M S M m Z G G E ! X.X...I ..X.X.X.+.#.T j V C K +...i.F.D.G.C.G.G.M.C.Z.N.N.M.",
"7 s * + % + 1 b V 0 d m m 0 Z $.$.$.%.%.%.%.%.%.@._ M n S n 9 2 g N D D _ _ _ ..@.O.X.@...I R @.#.L C K U ] #.r.D.D.F.M.M.H.M.M.M.M.M.M.",
"t * * & $ % V H N m I R R X.! +.#.%.#.$.O.@.#.O.@.L 2 M m 1 < 2 g n Z F I _ _ _ X.$.%.%...G G R #.-.:.4.5.5.5.r.D.D.F.F.G.N.G.C.C.C.C.M.",
"+ & $ + + * H R E D H G ....{ ! j L ) _ +.O.o.o.+.Z 2 g 1 2 2 9 d a m N F I ! R X.@.$.@...Y D Y o.o.>.5.5.q.r.i.D.F.F.M.M.C.C.Z.C.C.Z.N.",
"O + O X % + B R E H N N m -.=.! 3.7 > 7 d U ......Z 2 1 < 2 2 0 g n 9 d N D F G ! X.X.X.I I D H I ..+.:.r.r.i.a.a.D.F.F.G.Z.G.C.C.C.M.C.",
"o o O o & + < L R H Y E e.e.! 0.` t w - % 7 I ....U d 9 9 2 2 a a n N d 2 g F G ! E R G G N N V B Y U +.q.i.s.a.D.G.G.M.C.H.C.C.C.M.m.m.",
"O o   o O % * 7 B U >.s.e.m *.=.u v w ; w % f I U ..B ..I D Z n n 2 n Z N N g n S F Z F M d n M N D Y U o.q.s.s.s.D.G.M.C.C.C.C.C.Z.N.C.",
"X     o O + % 5 5 >.Y.q.h A { y p p e p p w 1 C T o.G R O.O...F P f 1 g ! 9 9 m < a j g 2 2 d m V B L P R +.r.a.D.D.G.M.C.m.c.C.N.m.M.M.",
"+       . o O . 5 8 5 5 8 K u y p e k e = : > s B Y Y Y O.O.G M Z 9 : 3 < : F n a p a C > 1 2 a d V B D P R #.i.s.D.M.M.M.C.m.C.m.M.m.m.",
"% O   o O     + - & * 4 u 6 * y k p ! k : : : a B B T Y R E L 9 n 1 X $ % % a ! =.9.] l u , < a 0 b V B B I E 5.D.D.D.m.M.C.n.M.M.m.m.M.",
"O O O O o   . O - - 4 - 4 * w f ` ! ! : w : : w j B 0 L L U P b z % X $ : ; w 0.z.9.z. ., < 1 < 0 0 d B B Y U #.w.D.M.n.C.m.m.m.m.A.m.m.",
"o o o O + o . & - - - - $ ; - A g -.{ : > + + < b B 9 7 V Z B j j % X ; q q q 3.9.9.8.9./ * , , 0 0 0 b B B Y R e.a.D.x.c.C.m.m.m.m.m.m.",
"o o o . o o O & r t 6 ; $ $ 6 z 1 d 3 : X X 3 9 b B V 7 1 s f j u *   = = q ; =.f.8.8.8.9.f > < 8 9 0 b V B Z U E r.G.v.m.m.m.C.C.m.m.c.",
"  @     o O   o & - t = & 5 l 4 5.J o + X O 1 d B B B C < % > < 6 %   $ $ ; ; [ 9.8.8.0.9.=.- , , 7 9 0 V B B Y U -.n.c.m.C.m.c.m.A.c.M.",
"    @ X . . o       $ = # # 5 5 T 5 O O O $ 6 j V N M M j < $ X % $ X @ $ $ $ ( 9.6.6.0.5.3.y > , < 9 0 d V B H I ..w.b.v.m.C.m.m.m.m.c.",
"          .   O       # # & o o . . . X       X X + * * % % : X @ $     @ = $ { 8.0.0.0.8.;.f > + > 7 9 0 d V B L P -.b.c.m.m.c.m.m.m.m.",
"X @   X   .     @         o # 5 o 5 X   .                     X $   $ $ $ $ = <.8.6.6.3.4.;.h , % > 1 7 0 d b B L P X.w.C.c.m.c.m.m.m.m.",
"            .   X         X   X : @ @ @ $       .   X   .   .   @ @ @ @ @ $ = W 1.0.8.6.0.;.j , > * > 7 9 0 b V L L P 4.n.m.S.l.m.S.m.m.",
"  .           .                   X @ : X @ $         @           @     @ # @ @ $ c  .{ ;.| y * * + + > 7 9 d V V L P *.b.m.S.m.S.S.S.m.",
"              .           X     @     @ X   @ @ $ X @ X   X   X     .   @ @ # @     @ $ ; $ ; - * + + + , 7 9 b V L L o.r.m.m.m.m.S.S.m.",
"      X       .                 @         $ $     @   @ @ X @   @   @   @ @ @ @ @ $ $ $ $ $ ; 4 4 & O + % , 7 s b V H I 5.m.c.S.S.S.S.m.",
"X                                             X #   o   # #   @ X @   $     @ @ @ @ $ $ 4 q p i i ; # = $ $ > < 9 n S F 4.M.c.c.c.c.l.S.",
"X                                                 # o       # # # @ @   $ @ # @ @ @ @ @ & 4 & ; # # # & $ $ $ 7 d 2 m N ;.M.c.c.c.c.m.m.",
". . X           .         .             .           # # o     o @ $ $ O $ . . @ .   @ # = & 4 r $ q ; & $ & o , F Z N N 4.c.c.c.V.c.c.c.",
". X             .                         . .           o # #       $ O p <.W l p r = @ & & & 4 # l } 3.x K x - j ` R ! w.c.k.c.c.l.c.c.",
".             .                       .     .   .       . @ o # @   o @ # ~ u x [ c W l c l 1.9.r p 1.7.} t  .[ A F P ` c.c.c.c.c.c.l.c.",
"          .       . .         . .       .     . . .       . . #   $ @ @ @ . # # # # = p c p <.j.c & l 4 # $ 4 u A i F 9.c.c.c.l.c.l.l.l.",
"      .     .               . . .                   .       @ .     # @ o # o   # @ @ @ . @ q p & = & = 4 & 4 = ; - f g.c.k.l.l.l.l.c.l.",
"X                           . .   .   .   . .         .   . . .         o     o   @ @ @ @ @ .   . 4 # & * & & & ; ; q c k.k.k.c.l.l.l.l.",
"  X . .     .         . .   .   .       .       .   . @     .   @ . . o                   o # # @ @ o & & & & $ $ = q q W l.k.l.l.l.l.l.",
"    X     . . . .         . . .   .   . . .     . .   . .   . @ @ . . @ .   .           o   o   @ # # o & & & # # = = r w { c.k.k.l.l.l.",
"                  .                 .     .   . .   .   .   . @ . @ .   .     .         .         o o # $ # - # = = = = p x | m.z.k.k.k.",
"X         . .   .             . .           .     .       .   @ . .         . o             o         o @ # $ @ # = = = ; [ / 8.k.z.l.k."
};
