/* XPM */
static char *result[] = {
/* columns rows colors chars-per-pixel */
"64 64 29 1 ",
"  c black",
". c #110605",
"X c #120A0A",
"o c #141413",
"O c #1C1C1B",
"+ c #2D0501",
"@ c #230A07",
"# c #2D0801",
"$ c #380901",
"% c #380C03",
"& c #380D05",
"* c #3A110A",
"= c #2F1C17",
"- c #3B1710",
"; c #3B1A13",
": c #28221F",
"> c #292A28",
", c #3F2B27",
"< c #382B2F",
"1 c #430A01",
"2 c #4F0D01",
"3 c #431006",
"4 c #44140D",
"5 c #53271F",
"6 c #58433F",
"7 c #383F40",
"8 c #464D4F",
"9 c #536265",
"0 c #62797E",
/* pixels */
"                                                                ",
"8888888888888787888888888878777o 8888888888888888888888888878788",
"7777777777777777777777777777777o 8777777777777777777777777777777",
"7777777777777777777777777777777o 8777777777777777777777777777777",
"7777777777777777777777777<08777o 87<0877777777777777777777777777",
"7777777777777777777777777<88777o 87<8877777777777777777777777777",
"7777777777777777777777777<<7777o 87<<777777777777777777777777777",
"7777777777777777777777777777777o 8777777777777777777777777777777",
"8888888888888888888888888888888:o0888888888888888888888888888888",
"7777777777777777777777777777777o 8777777777777777777777777777777",
"8888888888888888888888888888888:o0888888888888888888888888888888",
"8888888888888888888888888888888o 0888888888888888888888888888888",
"8888888888888888888888888888888:o0888888888888888888888888888888",
"88888888888888888888,8888888888:o0888888888888888888888888888888",
"8888888888888,,88888888,$888888:o0888888888888888888888888888888",
"88888888888821$8$888888$$888888:o0888888888888888888888888888888",
"8888888888881$$88888188$888,$88:o0888888888888888888888888888888",
"888888888888&,$$8888$88888$$888oo9888888888888888888888888888888",
"888888888888*83$8888,88$888,$$,:o0888888888888888888888888888888",
"888888888888;84888,,,21881$$$$*oo9888888888888888888888888888888",
"888888888888,8*88;;$$$,888,,$%;:o0888888888888888888888888888888",
"88888888$$8888,821$1$$$$88888%,oo9888888888888888888888888888888",
"8888888888888$82$$$$$$,$$8,88%8@o9888888888888888888888888888888",
"888888888888881$$$1$$$$888$88-8.o9888888888888888888888888888888",
"888888888888821$;$$1$$$$8888888Xo9888888888888888888888888888888",
"888888888888,82$,$2$$8188$$8888oo9888888888888888888888888888888",
"88888888,$$8$8882;2$888888$$,88oo8888888888888888888888888888888",
"88888888$$8888881;$$$8888888888oo9888888888888888888888888888888",
"88888888&88888888,1$$881$888888oo8888888888888888888888888888888",
"88888888*88$888$882,$$82$$88888Xo9888888888888888888888888888888",
"8888888888,$882$$8$8$,8,$$$8888oo8888888888888888888888888888888",
"888888888888881$$8,8$8881$,8888o:8888888888888888888888888888888",
"88888888;88888,1$888$8888$88888:o8888888888888888888888888888888",
"88888888,888888;$888$8888+67888o:88<0788888888888888888888888888",
"8888888888888$8,$888$;888+#7888:o88<7788888888888888888888888888",
"8888888888888$88$888;,888+<8888o:88<<888888888888888888888888888",
"888888888888,888$888,8888$88888::8888888888888888888888888888888",
"0000000000000000500000000000808::8080000000808080008080808000000",
"                                                                ",
"                                                                ",
"Oo oOoooOo oOoooOo oOoooOo oOoooOo oOoooOo oOoooOo oOoooOo oOooo",
">o >>Oo>>o >>Oo>>o >>Oo>>o >>Oo>>o >>Oo>>o >>Oo>>o >>Oo>>o >>Oo>",
">o >>OO>>o >>OO>>o >>OO>>o >>OO>>o >>OO>>o >>OO>>o >>OO>>o >>OO>",
">o >>OO>>o >>OO>>o >>OO>>o >>OO>>o >>OO>>o >>OO>>o >>OO>>o >>OO>",
">Oo>>OO>>Oo>>OO>>Oo>>OO>>Oo>>OO>>Oo>>OO>>Oo>>OO>>Oo>>OO>>Oo>>OO>",
">o >>OO>>o >>OO>>o >>OO>>o >>OO>>o >>OO>>o >>OO>>o >>OO>>o >>OO>",
">Oo>>OO>>Oo>>OO>>Oo>>OO>>Oo>>OO>>Oo>>OO>>Oo>>OO>>Oo>>OO>>Oo>>OO>",
">O >>OO>>O >>OO>>O >>OO>>O >>OO>>O >>OO>>O >>OO>>O >>OO>>O >>OO>",
">Oo>>OO>>Oo>>OO>>Oo>>OO>>Oo>>OO>>Oo>>OO>>Oo>>OO>>Oo>>OO>>Oo>>OO>",
">Oo>>OO>>Oo>>OO>>Oo>>OO>>Oo>>OO>>Oo>>OO>>Oo>>OO>>Oo>>OO>>Oo>>OO>",
">oo>>OO>>oo>OOO>>oo>>OO>>oo>OOO>>oo>>OO>>oo>OOO>>oo>>OO>>oo>OOO>",
">Oo>>OO>>Oo>>OO>>Oo>>OO>>Oo>>OO>>Oo>>OO>>Oo>>OO>>Oo>>OO>>Oo>>OO>",
"Oo >OOO>Oo >OOO>Oo >OOO>Oo >OOO>Oo >OOO>Oo >OOO>Oo >OOO>Oo >OOO>",
">ooO>OO>>ooO>OO>>ooO>OO>>ooO>OO>>ooO>OO>>ooO>OO>>ooO>OO>>ooO>OO>",
"Oo >OOo>Oo >OOo>Oo >OOo>Oo >OOo>Oo >OOo>Oo >OOo>Oo >OOo>Oo >OOo>",
"O  OOo OO  OOo OO  OOo OO  OOo OO  OOo OO  OOo OO  OOo OO  OOo O",
"0000000009000090909090999999090909000000000000000000000009000090",
"8888888878888888888888888788888888888887878888887878888878888888",
"8788888788888888888888877888888888888888788888888788888788888888",
"7880788888807888888078878880788888807887888078887880788888807888",
"88<7788888<7788888<7787878<7788888<7788888<7788788<7788888<77887",
"78<<888888<<888888<<888788<<888888<<888888<<887788<<888888<<8878",
"8888888888888888888888788888888888887888888888788888888888888787",
"<======<=<=<<<<<<<=<=<o<o<oooo<o<<<<<<<<=<=<<=<=<======<=<=<<<<<"
};
