/* XPM */
static char *_08315928a3543faf56c535f5ac27ac16XirjwrBkq6O086b[] = {
/* columns rows colors chars-per-pixel */
"128 128 78 1 ",
"  c #1E1D1C",
". c #201F1E",
"X c #21201F",
"o c #252422",
"O c #282725",
"+ c #2A2827",
"@ c #2D2C2A",
"# c #302F2D",
"$ c #32302E",
"% c #353432",
"& c #383735",
"* c #3A3937",
"= c #3D3C3A",
"- c #403F3D",
"; c #42403E",
": c #454442",
"> c #484745",
", c #4A4846",
"< c #4D4C49",
"1 c #504F4D",
"2 c #52514E",
"3 c #555451",
"4 c #585654",
"5 c #5A5956",
"6 c #5D5C59",
"7 c #605E5C",
"8 c #62605E",
"9 c #666461",
"0 c #686664",
"q c #6B6966",
"w c #6E6C6A",
"e c #72706D",
"r c #757370",
"t c #7C7A76",
"y c #7D7B78",
"u c #83817E",
"i c #868481",
"p c #888683",
"a c #8B8986",
"s c #918E8B",
"d c #93908D",
"f c #979591",
"g c #999793",
"h c #9D9B97",
"j c #9F9D99",
"k c #A19E9B",
"l c #A4A19D",
"z c #A8A5A1",
"x c #ADAAA6",
"c c #AFACA8",
"v c #B1AEAA",
"b c #B4B2AD",
"n c #B7B4B0",
"m c #B9B6B2",
"M c #BFBCB8",
"N c #C1BEBA",
"B c #C5C2BD",
"V c #C9C6C1",
"C c #CDCAC5",
"Z c #D0CCC7",
"A c #D2CEC9",
"S c #D5D2CD",
"D c #D8D4CF",
"F c #DAD6D1",
"G c #DDDAD5",
"H c #E0DCD7",
"J c #E2DED9",
"K c #E5E2DC",
"L c #E8E4DF",
"P c #EAE6E1",
"I c #EDEAE4",
"U c #F0ECE7",
"Y c #F2EEE9",
"T c #F6F2EC",
"R c #F8F4EF",
"E c #FBF7F1",
"W c #FEFBF5",
"Q c #FFFFFF",
/* pixels */
"o@o+OOOO@$-$$++@-%-@+@+oo@--;;@+QQQQQQQQQQQQQQQEQQQQWQQQQQQQQQWK@++o+o+oOOo##$#$+XXX+OXX+++XXXXXQQQQQQQQQQQQQQQQQQQQQQQQABQQQKQQ",
"#@O+@#@*;;@$;$@@@+XX+oooO+@-@@+OQQQQQQQQQQQQQQQWQQQQWQQQQQQQQVVQo@%oO++oo+o++$;>-XXX+XXXXXX$@@XXUDPQQQQQQQQQGBQQQQQQWQQQQQQQWQQQ",
"%@@@@@*5;;;;-@+ooooooooo@-+oO+-oQQQQQQQQQQQQQQQQQQQQHQQQQQTQxQQQ=%**==$*$#o+@$;*;#+-&X+XX#;$$*@XKIPQQQQQQQQQQQNQQQQQQQQQQYQQQQQQ",
",*%%=,>2#@#oXOoooO+oOooO@+O+ooX-QQQQQQWEQQQQQQQQQQEGQQQQQQQKEQQQ=;=:>,2<;;%=$===1;--%%$#&**-XXXXQWQQQQQQQQQQTQQRQQQQQQQQQQQQQQRK",
";;$$#$OO+@oOOOOX+ooooo++#@@$OOooBQWQQQQQQQQWQQQQQQQWQWTKQQQWQQQW*%$@@o+@&><==,<78q5;34;-*XX@XX+XQGQQQQQQQQQGKQQQkQQQQQQQQQQEQWGP",
"%$@++@++@+OOXOOO+oOoo+OX@oO+oo+@FQQQQQQQQQQQTQQQQQQTQQQQQQQcQQQQ*2,%$@o@+OO#$*$%;&#+%#+XXXX+X#X+QHQQQQQQQQQWWTEEVQQQQQQQQQQQQQQW",
"+#++O++@OO+O+OOO+oo+$-+@ooOoOoooWEQQQQQFQQQHIKQQQQQEQQQQQQQQQQQQ++$%;:,$@oo++$-@++XOX+XX+XXXXXXXDWQQQQQQQQQGarYQQQQQQQQEQQQWQQQQ",
"$@+@$O#+-OOoOO+Oo+-+-;-oooooooO+QQQQQQQDTHEQVWQQQQQQQQQWQQQEQQQQO+@+%#%*$#O+++#@++#XO$@X+XXXXXX+BQQQQQQQQQWQRQRQQQQQQQCQQQQQEQQQ",
"+$*=;;;#&*@X+##%;;;-$@@++oooooo@QLQQQQQIQQQQFbQQQQQQQQQQQQQQQQQQ+@$-=@&$++#++O@$OXOOO@#XXXXXXXXXWQQQQQQQQQEIQQQFQQQQQQQPQQQQQQQQ",
"O+@+@+@#$<;<;-;4;;;$-@-XoooXOooOQcQQQQQjQQQQWQBQQQQQQQQQQQQQQQQQ$@=@#++++++o++#O&@+XO#+XX++X+X+@QQQQQQQQQQQQGEQQQQQQQzHZQQQWQQQQ",
"++++##@+X@#*--31;;;;$@@oOoooooooQSQQQQYwQQQQQQQQQQQQQQQQQMQQQQQQ@+O++X+OXo+o@oOX%@O++@#X+X+@X@X+QQQRQQQQQQQQQQQQQQQQQQYQQQQQQQQQ",
"O++#&&@@@@X@@+#--;-;;---$-ooooOoIIQQQQQlQQQQQQQQWQQQQQQQYQQQQQQQOXXOOOXOoooO+oo++;XXX$###XX+X#@XQQQQQQQQQQQQQQQQQQQQQGHQQQQQQQQQ",
"++@$&$@+#@@@X@@++$;-;;;;-$@#ooXoQQQQQQQGQQQQQQQQKWQQQQQQDQQQQQQQX+X++OXXOo+++OO+$-%#XX$%#X+X#X@+QQQQQQQQQQQQQQQQQQQQFBCQQQQQQQQQ",
"++%$+@@X++@++##+O+O;$#;;-#;;;--OMQQQQQWQQQQQQQQQWQQQQQQQRQQQQQQQ+XXOX+O+++++*++oX-;&++X@#+++@@XXQQQQQQQQQQQQQQQQQQQQQPWWEQQQQQQQ",
"+&$+@++++@+++#XXo+--o@--$$;;;;#-DEQQQQWQQQQQQQQQQWCQQQQWQWQQQQQQ+XX+X+$%&*$XO#OX+$;X@XX+##X++X+XQQQQQQQEQQQQQQQQQQQQQQQAQQQQQQQQ",
"+%$@++++X@#+O@##@#----XOO@o@--$@WQQQQQFQQQQQQQQQQQEYQQQQQQQQQQQQX+XX$%$+X++OXO++XX-#O#X++XX+XX+XQHQQQWQMQQQQQQQQQQQWQQWcUQQQQQQQ",
"@$;--;;#@$+@@X+X@@ooo$oOoooOooo+QQQQQQWGQQQQQQQQQQWEQQQQQQQQQQQQ@XXX@@+XX+@+XXOXX+@+X+X+X@X@X@@+QVWQAIRDQQQQQQQQQQQQQQQAAQQVQQQQ",
"%-;--%&X++X++++@@OoOooOOooOooo+@QQQQQQQWQQQQQQQQQQREQQQQQQQQQQQQ+XX+$X++++X+X+++++%$+@X+@XX@XXXXQVKNQQQQQQQQQQQQQGQQQQQGCcxNQQQQ",
"$-@#@#@#-+X$@XX+ooXooX++ooOoooooQQQQQWQQQGQQQQQQQQCVWQQQQQIQQQQQXX@++XXXXXXXX+XX+X+X@$X@XXX+#X@*FtQQQQQQQQQQQQQQQQQQQQQQQDHTQTIQ",
"-;-+#%--;%&-%#@XooXoooooOoOoXoooQQQQQQQQQQQQQQQQEBGQQQQQQQQQQQQQXX+@XX+X@X@%$@+XXXXO++X+@XXXX@@$WIQQQQQQQQQQQQQQQQQQQQQQQQQQQQTP",
"@@@#%#O$%@X#@$$-#o@@OooooXOoooooQQQQQTQQQQQESQQQQQQQQQQQQQQQQQQQX+@X+++@$OXOXXX&X+X+XX++X+XX@#@XQQQQQQQQQQQQQQQQQQQQQQQQQQQQQQQQ",
"OXOX@@O++%#++XXX@OO+@@+Ooo@+oooOQQQMTQQQQQQQQQQQQQQQQQQQQQQQQLWQX@XOX+X+@XO+O+XO+$+@+X+X@X$@XX+XQQQQQQQQQQQQQQQQRQQQQQQQQQQQQQQQ",
"O@OO+X+$+@++X+XXXOoXooOOXo+oooo#QQQQQQQQQQQQQQQQQQQQQQQQQQQQQQQQXXXXX+XX+X+XXOXOXX+@@+XX#X#@+XX+QQQQQQQQQQQQQQQQQQQQQQRQQQQQQQQQ",
"oXOXXX+XXXX+@$XX.X.Xoooo..oXoO+$QQQQQQQQQQQQQQQQQQQQQQQQQQQQQQQQXXXOX+X+++XXX++O+XXX$X++#@X#X+++QQQQQQQQQQQQQQQQQQQQQQQQQQQQQWQQ",
"XOoXXoXOXXX+XX+XX+Xo@XoXo.X@-$@oQQQQQGQQQQQQQQQQQQQQQQQQQQQQQQQQXXXX+XXX+OOX@@X+XX+X$XX+@$++X#++QQQQQQQQQQQQQQQQQQTUKQQQQQQQQQQQ",
"XXOXoXoXXXXXX@#-#+%;+ oXoo@$Oo.XQQQQQQQQQQQQQQQQQQQQQQQQQQQQQQQQXXX+X++XX++X@@+X+++X+X++X@+++@XXQQQQQQQQQQQQQQQQQTCgmCBQQQQQQQQQ",
"XOXOoXoXXXX.XXXX#@+XoooXooo+OoooQQQQQQQQQQQQQQQQQQQQQQQQQQQQQQQQX+X$+OXO+XX+X@@+++X+++X+@XX@XXX@QQQQQQQQQQQQQQQQQBlQQQQWEQCHSQQQ",
"OXXXXXXOXX..XXX.XXX X-$XO+X.XXXXQQEWQQQQQQQQQQQQQQWQQQQQQQQQQQQQXX+-=&@+@+XO++OXX+++X@X+@$@$++XXQQQQQQQQQQQQQQQQQAGQQQQQQQERMIQE",
"@O@&+XX   ..    XX@OoooXo..X..XoQQQQQQQQQQQQQQQQQQQQQQQQQQQQQQQQXXX+$$&+@@++++X+++X+X++@@%@+@$@+QQQQQQQQQQQQQQQQQNQQQQQQQQQQQQQA",
"X+@%%#X    X    XXX Xo  Xo..o.o.QQQQQQQQQQQQQQQQQQQQQQQQQQQQQQQQXXXX+X+&=#+XX@+$X@X+++X@&@+X@$%@WQQQQQQQQQQQQQQQQYQQQQQQQQQQQQEQ",
"XXXX@$X      X.  X   o+@Oo .XX.XQQQQQQQQQQQQQQQQQQQQQQQQQQQQQQWWO$$$$$@$++@++OO@@+@$+@$-%$@@+@++YQQQQQQQQQQQQQQQGWQQQQQQQQQQQQQQ",
".XX X;XX           X  XX+XX .oO@QQQQQQQQQQQQTQQQQQQQQQQQQQQQQQWE+;&@$X+XO$@@+X+X+++@&$@&+@#%&=@XQKQQQQQQQQQQQQQQVUEQQQQQQQQQQQQQ",
"WQQQQQQQQQQQQQQQEQQQQQQQQQQQQQQQX Xo ooooo.XooX oX.ooXXo XXO.Xo.YYQWQQQQQQQQQYWQQQEQQQKKQQQQQQQQo@$ooooooX  ooX%% @@.XXoO+..ooOo",
"WQQEQQQWWQQQQQQQQQQQQQQQQQQQQQQQ@ooX@oo oooo  o  X.@ .XXOX+X...oQQPYQQQQQQQQQQQQQQQQQQBQQQQQQQQQo@%*o@@+oXXoooo:@o.oO+XX+O..XO.o",
"QQQWHQQQQQQQQQQQQQQQQQQQQQQQQQQQooXXX.X oooooO%O.oo  .OO.o+OXoXOQQQQQQQQQQQQQQQQQQQQQQkQQQQQQQQQ@%@o@Ooo@@@+o$%%oo@@OOXXX.oooO. ",
"GWQQQWURQQQQQQTWWIGAQQQQQQQQQQQQo*Xoooooooooo ooO#OOo+OO#$&&OoooQQTQQQQQQQQQQQQQQWQQQWjTIQQQQQQQ+o+@o%@oooXo@%:%$oooXX.X..OX....",
"GQQQQQQQQQQQQQQbQEQEQQQQQQHQQQRQo@oo ooooo@O@o oOO+%-*OXooO;;X@oQQQQQQQQQQQQQQQQQQQQQQEDGQQQQQQQ%*<<;@=%oXoXXoo+@$O@O@@#OX. o.+O",
"QQQQQQQQQQQQQQQHQQQQEQQQQQQQQQWQ o%ooO@ooXooooOoO@@Oo@%-;;;11;#%QQQQQQQQQQQQQQQQQQQQQQQQHQQQQQQQ%*%*@@@@+oooo+ooOoOoOOOXXooO#@@+",
"QQQQQQPaQQQQQQQKQQQTRQQQQQQQQQQQX o#*%%%ooo#OX$:$XX..oXOo@&22;;;QQQQQQQQQQQQQQQQQQQQQQQQQQQQQQQQ+@@=%$$@&oXoooo ooooOoX.X o+   X",
"QQHQCTQHCQQQQQQlQQQQQQQQQQQQQQQQoo.+=@@@%%&=*:=@OXOoXX+OoO+ooX$OQQQQQQQQQQQQQQQQQQQRQQQQQFQQQQQQ+oo$%=@oooXXX XX@@X .XXX.@ooX.  ",
"QTAQQQQQuTQQQQQcQQQQQQEQQQQQQQWQXooo:<=,:*##%&O++@O+XXXOXoOOooOoQQYQQQQQQQQQQQQQQQQQQQQQQEeGQQQQ+@@%$OoXo+XX+X+=;#XXo #%O&o+o..X",
"HQQQQQQQDVQQQQWQQQKQQQQQQQQQQQQQooOoOO%=%%,&#@Oo$@@XXOOoXoXXO+OOUWWQQQQQQQQQQQQQQQQQQQQQQQWGWQQQ@@%$+O+o+XX$Xo+*1,*;:>1;;:&*>=&%",
"QQQQQQQQYCQQQQQQQQQQQQQQQQQQQQQQ:&%%&#-*%<>@@O#&+OoXXOXo+OooOoooQKPQQQQQQQQQQQQQQQQQQQQQQQWwTQQQ+++@@OXO@O+OXO+%+#:,;#+@;%%1q4,%",
"QQQQQQQQERQQQQQQQQQQQQQQQQQQQQQQooOoOoOOO$3:%@#@XOOO@Oo$OOOoOOooQEQWTQWQQQQQQQQQQWGQQQQQQQTQTQQQ+@+o+oOO$OO+o$=:%==@@#@=*#OOX@%@",
"QQQQQQCEQQQQQQQQQQQQQQQQQQQQQQQQOoo@ooO@o@&<:==#O+OXoXXXooOXXoOOQQQIDQQQQQQQQQQQURRGQQQQQQQQQWQC+++++oX++OXo&&<5:=#%o o@$X .X*o ",
"QQQQQQBQQQQQQQQQQQQQQQQQQQQQQQQQ@O@%*#%&$=*-6<%O+oXOooOooOoOoOooQQQHWWQQQQQQTEQFaQQaCQQQQQQQQVEM+++@++++@+&+@;;,&::6>*$$$@$o;&#O",
"QQQIQIWQQQQQQQQQQQQQQQQQQQQQQQATOO@O$,%@OO@@#,:+OOXOO+XOXOooOoOoQQQQCQQQQQQEHWIBUQQEfQQQQQQQQQeG$@@%#+OO@oXoO=3=##*OoXO$@oXO@.  ",
"YQWvpvTQQQQQQQQQQQHQQQQQQQQQQQQQOoOOo@o@@&:==%$%OOOO+OOOoOOooOo@QQQQQQQQQQQQQQQQQQQQQGQQQQQQQQLC$@$$@+@O+++Xo%-=%-@.oo. o.o@ @oo",
"CKGZYcQQQQQQQQQQQPbQQQEQQQQQQQQQooooO@Oo+O+@-#-;;#+O+++o+OOOoo$;QQQQQQQQQQQQQQWQQQQQQWEQQQQQQWQW##@@#=;&%*@XX@;*%+Xooo. ..oXoo;%",
"CDQWQQQQQQQQQQQQQQWQWQQIQQQQQQQQoOooOO@O+O#;;;-%$;;#+oo+Oo#$$$;2QQQQQQQQQQQQQQQQQQQQQWHQQQQQQQQQ@@@@#O@$$:;&*&:%%%Xooo  o#Xo%$XX",
"QNQQQQQQQQQQQQQQQQQQQQKWQQQQQQQQOoOO@oO@+%1;;;;-%$;;-o++oOo#=-;&QQQQQQQQQQQQEQQQQQQQQQQQTQQIQQQQO@OO@OO+O@+*1<:;%oOXoX....o%#X@X",
"QQQQQQQQQQQQQQQQQQQQQQQGPWQWQQQQOOO@oO@#$#$@;;1--%;;;-@oOOOO$%$@QQQQQQQRQQKWKQQQQQQQQQQHBWQWQQQQo@@#@$$#%+%%%oX@@@*oX. X.oXo Xo ",
"QQQGQQQQQQQQQQQQQQQQQQQQQWPQQQQQoo@o@=*$OOO@+@$-;;;-;-+oOO#%$#OoQQQQQWQQQQIQWQQQQQQQQQQWBWQQQQQQ@#$#%@%%O@;Oooo$XX@ooX.o@. @ Xo ",
"QQQQWQQQQQQQQQQQQQbLQWQQQQQKEQQQo@@@%O@@#O+%-&;;5;@+o+--@O$%++OOQQQQQQQQQQQDTIQQQQQQWQQQFAWQQQQQ:;;;<==@*2:*$OOoXo@OOXXoO  .....",
"QQQQQQQQQQQQQQQQQLcWQQQQQQQQTbSQ@o@@@@@@@##$+$+;8;$@+++-;=#O+O@+QQQQQQQEYQQITYQQQQQWQQKJMbQQQQQQ:>-521=%:*#%+OoO@%+XoO++OooXOOXo",
"QQQQQQQQWQQQQQQWTWTQQQQQQQQQQIIG@o@o%@@@+@+#-;-44;;$$-+X@#+#++++QQQQQQQQQQQQGMEQQDWSQBGWQQQQQQQT<;40:++*%O@o$*ooXXoOOXoX@o&OX#@@",
"QQQQQQQQQQQQQQQHWQYQQQQQQQWQQQQQ$%@+@&=$++@++#&;;;-+@@#@OOOOOOOOQQQQQQQQQQQQQQIGQYEQQQQQQQQQQQQZ&#:==@*&:;;:3=*%O#O@-*&=&$&%*&%+",
"QQQQQQQQQQQQQQQQQQIIQQQQQQQQQQQQ%@@o@+@%$&$@@#@+@@++++@#;;&-#O+oQQQQQQQQQQQQQQQQQQQQQQQQQQQQQQQQ&=&@#@#@@%%*@$%%#%@@@#&@*Oo o.Xo",
"QQQQQQQQQQQQQQQQQQvbQQQQQQQQQQQK@o@o+##-;;%$@@@#$#+@@++-%O%&#++oQRWQQBQQQQQQQQQQQQQQQQQQQQQQQQxQ&$#&@#%*;=@@$OOO@&=*&-#oO X.XXX.",
"QQQQQQQQQQQQQQQQQQDEQQQQQQQQQQTE@@o@+++-;,&$#+@$@###+%-;##O#;*#@QQQQQQCQQQQQQQQQQQQQQQQQQQQQQQVQ**#&$=:;:2:*$O$OOOO+@@XOo o  X+ ",
"QQQQQQQQQQQQQQQQQQQTQQQQQQQUQQWQ+@@+@@$@%$@@$@@@#@##;;21;;;2691;QQQQQQQPTQQQQQQQQQQQQQQQQQQQQQDQo@Ooo#O@:$@@$$$@#o.o  o+OO@ XXX ",
"QQQQQQQQQQQQQQQQQQWQQWQQQQQQWWQQoO+@+#@@@++@@+#X@@@@$$$%%%@@&%#;QQQQQQQTdQQQQQQQQQQQQEQQQQQQQQQQ@@ooooo@;*$&==&$=-#$o$@X#o++oXXo",
"QQQQQQQQQQWQQQQQQQQKQQQQQQQQAQQQOO+%=*&+++@@@+@@O@@@$@%$@%@#+++oQQQQQQQQrQGQQQQQYQYFAVWQQQQQQQQRooOo###*Ooo@O@OOO%&%oooo $%ooXXX",
"QQQKQQQQQQQQQQQQQQKuQQQQQQQQQQQQ$o+@$&&++++@#@@@O@O@@@++++@@@@#OQQQQQQQQSQRQQQQQQSlVHMQQQQQQQQQY@oXXooooooooXXO@%$&@oXO*==#O+oo+",
"Xo+#%@ooXooXXoXXoo@#oO@oOo##@o@@QQQQQQQQQQQQQQQFQQQQQQQQQIBQQQQQoo@@oo@:*@*%o.oOo&%=;:<96;$@o@O@QQQWQQCQQQQQQQQQQRQQQQQQQQQWQQQQ",
"..ooOXO=%ooXXX@XooXOXoo@O@#ooo#$QMBQQQQQQQQQQQQQQQQQQQQWNbQQQQQQo+oOo@@<@%o@o&@Oo#O&%*=6=%@@%oo*QQQQQCLQQQQQQQQQQQQQQQQQQKQTQQQQ",
"OOo...oo.X@oooXooXooo@oo@$oOO#@$GSQQQQQQQQQQQQQQQQQQQQQKiCQQQQQQ%$@@%*=:%%%%@O$=$@%$@oo@@%%+oo@#QQQQQBTQQQQQQQQQQQQQQQQQQQQTWQQQ",
"%.XX..oXXXXoo++%oOo#O$#@*@o@@oo$mQQQQQQQQQQQQQQQQQQQQQQWEEQQQQQQ@@Oo@%%*%o&*%%&:=%=1-@o$X.Xoo@%=QQQQQjQQQQQQQQQQQQQQQQQQQQWQQQTQ",
"#OXoo@oXXXoo..%Ooooooo@XO@o@OOo$QQQQQQQQQQQQQQQQQQQQQPPQQQQIYQQQ-$#%@o@@XOXXoO%%=--3>&$&#oooo@@@BQQQGnQQQQQQQQQQQQQQQQQQQQQIQQAW",
"ooX.XX.XXoXoo@+XXXo.Xo#:@O#$%&$$EQQQQQQQQQQQQQQQQQWQQQUQWQIQQEQQr91<*&%@@$%+&;=:&>,6<,;&=@@oooo@TQQQfQQQQQQQQQQQQQQQQQQQQQQFWRTQ",
"+##ooo+o+oo@#%+oXXoo@oOooOXooooOQTQQQQQQQQQQQQQQQQWQQQQQQQPHQvTP=*%$$*@oOO.O+#$#&#=-$$@X@O&=%%o@QQQQQQQQQQQQQQQQQQQQQQQQQQQFPQQQ",
"oo$343;%%Xo*=oX..oooXooo@oOooooOQQDdIQQQQQQQQQQQQQQQQQQQQQQQQKQQ*@*%*&=*;&%%@%#%$@#$&%;$@@@%@@@=QQQQQQQQQQQQQQQQQQQQQQQQQQQQQQQQ",
"XXo$-1<4,,=:OX.XO@O#O@Ooo@oooooOQQRQWQQQQQQQQQQQQQQQQQQQQQGQQQQQ::;=$@@+@*,<>35>1<$+@XX$X+X@+XXXQQQQQQQQQQQQQQQQQQQQQQQQQQQQQQQQ",
"oo++@oXoo .@@. oXXoOo@OooooO.oOoQQQQQRQQQQQQQQQQWQQQQQQQQQWQQQQQ:=$%oooXX@;=<$@OXXXXXXXX#*&&-$$+QQQQQQQQQQQQQQQWQQQQQQQQQQWQQQQQ",
"oXXXXX.o ooooX.ooXXXXoooooOO@$oXQQQQQQIhQQQQQWQQQQQQQQQQQEQQQQQQ#+oo@+$*$%=$oOo.XXXX@XXXXX$$$&@+QQQQQQQQQQQQYWKQQQQQQQQQQQWQQQQQ",
"XXXXoX oooooXX..OXoooO..ooOo@$@oQQQQQQQSmQQQEGKQQQQQQQQQQWQQQQQQ@$$=%$&=%#o@O .oXXXXX+$-XXXX@*&@QQQQQQQQQQQQWATEQQQQQQQQQQQQQQQQ",
"oXXXooO$%@OOO%%@$%@ oo.oXXooo**$QQQQQQQQQWQQQQQQQQQQQQQQQVEKQQQQ=2,:=:XX@@@@OooOXXXXX+X@X+++++@-NQQQQQQQQQQIQmAQQQQQQQWQQQQQQQQQ",
"Xo.oo=2<&%@&@+@*%*=**oOoO..oO.o-lFWQQQQQQQWQQQQQWQQQQQQWQQQQQQQQ96:*$+o@-@OXooOoXX@++X#+&@%X##@@FkQQQQQQQTQKIWvQQQQQQQQQQQQQQQQQ",
"o.Xo$:=;,#+OO+***,=,--$$OOOXooooIWQQQQQQYQQQQQQQQQQQQQQWQQQQQPQQ&%X@oXX++oX.XooXXXXXX+-$X@+XX$-<QQQQQQQQQDHAQQDQQQQQQQQQQQQQQQQQ",
"ooO-@&:=*O@XOX@><>:=OO@--@O.oo.oQQFQQQQQQQQKQQQQQQQQQQQQPQQQQQPQ++XOXoX@X@oo.Xo@+XX@XXX@XX&%$;**QQQQQQQQQQYQQQQTQQQQQQQQQQQQQQQQ",
"X$%&%;&:%$*&XOO-$+#O@o@+&$%=%@..QQQIQQQQQQQQDQQQQQQQQQQQTQQQQQQEoX@ooXoo+O%oXOo@oOOooOooX+@185;&QQQQLQQQQWQQQGQQQQQWQQQQQQQQQWQQ",
"#X@;<;-@X-=+$#%%#OXXo.O@%:*%%-%OQQQTQQQQQQQQQWQQQQQQQQQQQWQQQQQMoXo$oo+XoO=ooOOoOooo@@oo+$;;;;-+QQQEQQQQQQQQQTPQQQQQQQQQQQQQGKQE",
"O#;4=@oO=><&X@oo#=O%o+oo$$=$@@OOQQQQQQQQQQQQQWQQQAQQQQQQQVQQQQQQoOO@oX@oooO#@+OoOOOo+@oo@%%@X++#QQQQQKQQQQQQQGQQQQQQQQQQQQQRQTKb",
",263:%$@%%2&+%%%@#o.Xo+O@@$+@@-*QQQQQQQQQQQQQQQQQTQQQQQQQbQQQQQQ@@ooooooooOoooooO@oO+#@@$++@#++$QQQQQTQQQQQWQQQQQQQQQQQQQTQQQYQQ",
"=;1&$..O%=**><>-@ooX@ooO$*:&$:%&QDQQQQQQQQQQQQQQQCcQQQQQQBmQQQQQ*;#@o+OoooooOoO@+oOO&9>%@++@+++@QQQQQEQQQQQYQEQQQQQQQQQQWQGWWQQQ",
"&,3=&-%O$=@@+:==+oooXoo@=oO%%&@*SWQQQQQQQQQQQQQQQAmQQQQQQQQQQQQQoo&$+@oooOOOOOoO#+%<<>@O@@+X@+$;QWQQTQQQQQQQQTQQQQQQQQQQQQQQQQQQ",
"56=@OOooo oO@@;=ooXO++&&%#&%@@O<KQQQQQQQQQQQQQQQQGbDQQQQWQQQQQQQ@O#>2#oOOOoOoOO+#$<4$%+O@@@+@;&;QQQIQQQQQQQQQQQQQQQQQQQPEQQQQQQQ",
";&OooO.OXo+oXX&4=#OOOoo@$:*O@o%*QQQQQQQQQQQQQQQQQWcTQQQQQQQQQQQQoooO;%&@#=&=-=#%&&*&@$#++@@@@@#&QQQEFQQQQQQQQQQQQQQQQQHWQQQQQQQQ",
"%@O@o@ooXo@Xo+&*%@@O@.Xo@*@@%%%*QQQQQQQQQQQQQQQQQQNIQQQWQQQTDQQQooXX=#%@Ooo+@+#$#@&$@@@@%o@@+++@QQAIREQQQQQQQQQQQQQYEQQQQQWQQQQQ",
"OooXooXo$@@XoXo+.Xoooo@@@%+@*:$$QQQQTQQQQQQQQQAQQQGGQQQEQQQGPQQQ##oo+#oo+#@$%=>#-%*>&@O@%@%@++#@EGTQQQQQQQQQQQQQQQQQQQQQQQQQQQQQ",
"oooo@OooX@#@+o#@O&=::-:&$@#@=:%$QQQQQQQQQQQQQQQQQQQDWQQQQQTTWQQQ@O#o:$@+,%+OOoO%=-*:*%#O@+@@+#+@QLQQQQQQQQQQQQQQQQQQQQPQQQQQQQQQ",
"#%#OO@O@ooO+O#--%%%#@O@%%*:6,=*%QQQYQQQQWQQQQQQQQQQQEQQQEQQQWQQQo@#%*-#&3@+OOOo+$++#=%@@OO@@+=&$EQQQQQIDQQQQQQQQQQQQQQWFQQQQQQQQ",
"o#%OOoo.@#Oo$o@@%%##%#$#@#>=@%%<QQQPQQQQQQQQQQQQQQQQFWQQQQQQQVQQoOo+@#$-,%$o+++O#+++=**#+++@O%@@QQQQQQQQQSVQQQQQQQWQQQQQQWQQQQQQ",
"#>:OOOoo@,-#=*1-:&-=$$$+##4#*<%$QYPQWQQQQQQQQQQQQQQQEFQQQQQQQAQQOoo#O%@=$++@o+O+@@#$%=;#$$@+@+++QQQQQQQQMsMFQQQQQQQEQQQQQQEQQQQQ",
"=64*#$@OO><#o$$O++@%-&OO###$O=%@QBQQGQQQQQQQQQQQQQQQHaBQQQWWQQWE@o+O+@@%#@$#%*&%%#&&#@=&@@++++++QQQQQQQQWVAQQQQQQQQQQQQQQQQQTQQQ",
";*1#%#&&->4:&O@ooO#o%##@%$#Ooo%*WQQQQQQQQQQQQQQQQQQQTlcQQQQQWWWRo@+O+O@++$%*:=%@@O#&%@&:%%+@++O&QQQQQQQQTQEQQQQQQQHQQQQQQWQQQGMQ",
"LRQZQEQQQQQWQQQQQQQQQRbPQQQQQQQQ%%::=:%563;===@%@O++$%++oooOOOO+QGKQQQQQQQQQQQQTQIGDQQQmQQQGQQQQ%%$$++++#+%++++@$#@&%%@@@+@+@@#-",
"QQQQQQQQQQQQQQWQQVIEUKWQQQQQQQQK%>:%$-==<<3<<:@O+OO@=O@OOOOOoO#@QQQQQQQQQQQRQQDkfSEQQQQWQQQQQQQQ#@@#$=$+@@-#@$++$@+@+++#&##@OOOO",
"QQQQQQQQQQQQQQFQQQQQQQQQQQQQQQQQ-3<-=,:*-*$$%$@OOoo@OoO+O#+oOOo+AQQQQQQQQQPWWQPQQYQQQQTQQQQWQQQQ@#OO++&&#&$&$@++@++X+++@+#$+@@@O",
"QQQQQQQQQQQQQQQQQQQQQQQQQQQQQQQQ+-,=:,24@oO++$@+OOOO+oOoOO#@++OOQQWQQWQQKldQQQQQQQQQSWQQQQQQQQQQ+@@%%&*<=&$-@+++@++@@X+@X@;++#X+",
"BQLWQQfQQQQQWQQQQQQQQQQQWQQQQQQQO+=>*#1&:-$%==@$+OO@+OOO@OO@O@OOQQQQQWWWmmQQQQQQQQQQKWQQQQBQQQQQ#+&><--=$&%;&=&@@@+@++++OX%O+X@@",
"CWQQQQQQQQQQDWQQQQQQQWQYEQQQQQWQooOo#++#+>%+#%&%+OOO+OOOOOOOO+%:QQQQQVQQTQQQQQQQYQQWQQQQQQQQQQQQO+O#+$&#@&$$#=&&X@##@%@X%%-@#O+@",
"QQQQQQQQQQQQTQQQQQQQQQQWQQTQQQQQOOOO+@#$,4:*--$+OOOoO+++@O@##<<>QQQWQRQQHQQQQQQYQQQWQQQQQQQQQQQQX+oO&&;--,;==<=#$##@%##*;;+OO+OO",
"QQQQQQQQQQQQTQQQQQQQQQQQQQQDEQQQOOO+O+@16,:%$%@+@+OOO++@@@-;==26YQQQQYQWAQQQQQQQQQUQQQQQQQQQQQQQXOOX#&=$=&$$+@@O@@@@@@#@OOX@O+XO",
"GQQQQQQQQQQQBQQQEQQQQQQQQTQQBBQQOOOO@O@3;$@@**$OO+++++O@:6=$@@$&QQQQQQQQQQQWnDQQQQQQQWQQQQQQQQQQ+++XOo@@$=$$;&=+OOXX++X+OO++@#+-",
"vQQQQQQQQQQQLQQQQQQQQQQQQWFKILCQ@O@+%O&$$&#*&$#O+OOO+$$%%@@+O@$&IQQQQQQQQQQIRSWQQQQQIQQQQQQQQQQQXXXOX+$##@$+oO+$#@%##++@OOX#@O+#",
"mQQQQQQQQQQGSQQQQQQQQQQQQQAsEQLE@#@@@+&$;>;&@%&#++O@=>;+@+@$@@@-DQQQQQQQQQQQQQQQQQQQQQQQQQQQQQQQOXXOO&$@2$OO+o+=%%;-XXXOOooOOOX%",
"KQQQQQQQQQQUQQQQQQQQQQQQQQPWDQQQ#+@@#$&$@$-%@&$+++=&%#=;:&=&&@&<QQQQQQQQQQQQQQQQQQQQQWQQQQQQQQQQX+XX=-OO$$+O@++@&@@+##+XXOOXX@X+",
"GQQQQQQQQQQWQQQQQQQQQQQQQWQQQDLQ$*>==$$#@$*%#=##%%=&%%&-$@@@@+$@QQQQQQQQQQQQQQQQQQQQQQQQQQQQQQQQOXX+$+Xo++OO+O+OOOOOOOX#@OXO@%%;",
"QQQQQQQQQQQEQQQQQQQQQQQQQQQQQBlT@@$>-#@$@@#&=$&#=@++++@@@+O@@@+@QQQQQETQQQQQQQQWQQQQQQQQQQQQQQQQOXX@XXX+#ooO+OO+XX$+OOOX@+O#####",
"QQWQQQQQQQQEQQQQQQQQQQQQQQQQQEQY@@@&;$$$@+@#$&%%$%%$%&$=$%=%&O+@QQQQQlVQQQTETQQQQQQQQQQQQQQQQQQQXXX+XXXO+X+XO+OoO@XOXOXOXXXO%#@+",
"QVRQQQQQQQEQQQQQQWQQQQQQQQQQQGQU@$@;-$$*$@@@#:1$@$+@@@@=$&=$==-=QQQQQmHQQQQQVVHDQQQQQQQQQQQQQQQQXO+@O++++XooOXo$;+@#@+XXXX@##--1",
"QHBQQQQQQQQQQQQQUQWQQQQQQQQQQQQQ++-;<@#@+@%%$*$*;;-+O@+@+@$#@;,$QQQQQtSWQQQQQWEQGQQQQQQQQQQQQQQQX#..XOX+X+&$+X++-@@#+@X+X@--O@;5",
"QQElQQQQQQQQQQQQQQQQQQQQQQQQQQQQ++@;=++@#;;=&$$#+o---$@@@@#X@&1;QQQQQb6BIQQQQQQQIQQQQWQQQQQQQQQQ+;X.o++$#X+@+$XXXXXX#XXXXXXXX#+%",
"QQIiKQQQQQIQQQQQQQQQTWQQQQQQQQQQ+#+@+@##>79,#*$$@+O@$;;1;-%-%;,2QQQQQblMQQQQQQQQQQQQQQQQQQQQQQQQ.OOO$+XX+XXOXXX@OXXXXO%;--++XXX$",
"WQQbYQQQQQDQQQQQQQQQQIQQQQQQQQQQ++#@@@@%>&5q53,=-@@$@%$--*$@@@-,QQQQQDvQQQQQQQQQDWQQQQQQQQQEQQQQ XX..XXXOXX+++XXX@XO#&-&+XXOXX++",
"QQQKBQQQQQWQQQQWQQQWQEGQQQQEQQQQO+#+@@@%##:508>-@@@@%##@@#$%-%%,QQQQQWDQQQQQQQQQBQQQQQQWBQYQQQQToOooXX.XXXOO++X+X#-;;XOX++XX+XXX",
"QQQWcQQQQGKQQQQEQQQQQQQEPQQQQQQQ@@$+O@%$@###-26w5;;;$+@OX#++++@-QQQQQWRQQQQQQQQQKWQQQQQIGLISbmpRoX$ XXXXXXXXXX+XX@%%XXXOX-XXX+X+",
"QTQQyQQQQBPQQQQWQQQQQQQQSFQQQQQQ@;;;=;@@++##&<993-$@+$X++#++++@@QQQQQKKQQQQQQQQQQQQQQQEdSWQAnQQQX o..++#OOOXX+X++XXOXXXXX#@#@XX+",
"EQQWBWQQQCQUQQQHQQQQQQQQTNYQQQQQ+@%<2;@#++#+%&:=;;-#@+@++@+++++@QQQQQQCQQQQQQQQQEQQQQQQQQQQQQQQQ .ooXXXOXXXXX@X+X@#XOO@#$;;-X@@+",
"QQQQTIQQQGQQQQQWQQQQQQQQQQTQQQQQO+*<;;$@@O@@+-;;7333-+@#++@++++@QQQQQQDQQQQQQQQQAQQQQQQQQQQQQQQQ   X .XXXXXX@++XXX*&$@@*$<3*X+X@",
"QQQQQWQQQQMWQQQQQWQLQIQAFQDHQQQQ+@&$+@$##O+@@$$%;;-;;;-@++@+@@++QQQQQWAQQQQQQQQQIYQQQQQQQQQQQQQQXX  ..o.X+XX+X$X$#$-;-@X+*;2-@#X",
"QQQQQYQQQQQQQQQQQQQQQQQTQQWQQWQQ+$=+@#++@#O@@O+--;$-$;;;#++&++++QQQQQQWQQQQQQQQQWQQQQQQQQQQQQQQQ o  oXooXXXXX+$;;;-#*-1$#;%-#@X@",
"QQQQQQQQKQQQQQQQQQQQQQQQQQQQQQQQ@#++#@++OO@@@$@#$;;;$-$-@++$@+@+QQQQQQmQQQQQQQQQQQQQQWQQQQQQQQQQ.o    o+$+XX$$$-,3;;<;%$X#X;####",
"TQQQRIcTHQQQQQQRQQQQQQQQQQQQQQQQ;;;#@#@OOO@O%#%@$-;-;##@#$%$++++QQQQQQQQQEQQQQQQIQQQQQQQQQQQQQQQo.. ooo@$+-&@-5;;;*$;$XXX@#-$-*@",
"QQQQQWAQEQQQQQQQQQQQQQQQQQQWQQQQ+;;&%%%O$OOOoO+-;;;95;;$#@@+++++QQQQQQQQQQQQQWQQDWQQQQQQQGEQQQQQ  oo @@@#&X$$$$#@+X-$X@+X-X@3-+X",
"QQQQQQQQQQQQQQQEQQKQQWTQQQQQQQQWO+++@%#-&@@OOO+@O@@;5;#O+#O+++OOQQQQQQQQQQQQQWQQQQQQQQCQQQQQQQQQoooooo%oXX@$%#**&$#@-@X@@*@#-$XX",
"QEQQQQWUQQRAWQQRFYuIQVVUQIPWQQQQ#@++@%##;#O+OO@++O@-;;-%&+++@@oOYQQQQQQQQQQQQQQQQQQQQQQQQQQQQQQQ.o.o@@o.XXX@%%@&%X+X#X@+X*++@-@X"
};
