/* XPM */
static char *c5bbb4c8fc83465bb52b2066ad6c95c7V27PqMgaaT2APgWr[] = {
/* columns rows colors chars-per-pixel */
"64 64 147 2 ",
"   c black",
".  c #0C0303",
"X  c #120404",
"o  c #110506",
"O  c #120707",
"+  c #150505",
"@  c #170606",
"#  c #160707",
"$  c #1A0606",
"%  c #170A08",
"&  c #110D0A",
"*  c #120D0A",
"=  c #160F0C",
"-  c #190908",
";  c #1A0809",
":  c #1B0A09",
">  c #1E090A",
",  c #1C0A0A",
"<  c #1C0B0A",
"1  c #1C0C0B",
"2  c #19120D",
"3  c #001A15",
"4  c #1A1310",
"5  c #1E1611",
"6  c #200707",
"7  c #210B0B",
"8  c #210D0B",
"9  c #200D0C",
"0  c #230E0D",
"q  c #250C0D",
"w  c #270D0C",
"e  c #240F0D",
"r  c #260E0D",
"t  c #2E0E0F",
"y  c #2B100F",
"u  c #2D100F",
"i  c #31100F",
"p  c #261211",
"a  c #211713",
"s  c #2B1210",
"d  c #2F1210",
"f  c #2D1613",
"g  c #271B14",
"h  c #261A15",
"j  c #251C17",
"k  c #2E1F17",
"l  c #321210",
"z  c #311312",
"x  c #371312",
"c  c #321411",
"v  c #321412",
"b  c #361614",
"n  c #3C1313",
"m  c #391613",
"M  c #3B1713",
"N  c #3E1715",
"B  c #3F1916",
"V  c #3E1917",
"C  c #3A1B1A",
"Z  c #0A240D",
"A  c #0D250E",
"S  c #0E250F",
"D  c #0F250F",
"F  c #0F2711",
"G  c #00201B",
"H  c #072A19",
"J  c #102610",
"K  c #112610",
"L  c #112711",
"P  c #102911",
"I  c #08341F",
"U  c #0F371C",
"Y  c #173110",
"T  c #1B3111",
"R  c #1C3211",
"E  c #1D3213",
"W  c #1E3313",
"Q  c #1F3313",
"!  c #1C3413",
"~  c #1F3413",
"^  c #1D3414",
"/  c #1E3514",
"(  c #183814",
")  c #2E221C",
"_  c #30201B",
"`  c #38271D",
"'  c #3B2D1D",
"]  c #223615",
"[  c #002922",
"{  c #003422",
"}  c #3B2921",
"|  c #451816",
" . c #431F1C",
".. c #491D18",
"X. c #491C19",
"o. c #4D1C1A",
"O. c #4D1F1D",
"+. c #4E1F1C",
"@. c #472019",
"#. c #46211D",
"$. c #58221F",
"%. c #5B231E",
"&. c #492524",
"*. c #5D2B21",
"=. c #552A29",
"-. c #463124",
";. c #612723",
":. c #652F29",
">. c #68312E",
",. c #74362A",
"<. c #693433",
"1. c #713633",
"2. c #7E3C34",
"3. c #394F0F",
"4. c #204213",
"5. c #2A4615",
"6. c #2C4615",
"7. c #2E4716",
"8. c #2F4816",
"9. c #2E4918",
"0. c #304716",
"q. c #304816",
"w. c #314818",
"e. c #304918",
"r. c #314918",
"t. c #324918",
"y. c #334919",
"u. c #314A19",
"i. c #354B19",
"p. c #354B1A",
"a. c #315216",
"s. c #3C5010",
"d. c #3D5010",
"f. c #3E5112",
"g. c #3D5212",
"h. c #3E5313",
"j. c #3D5913",
"k. c #316A1F",
"l. c #094227",
"z. c #16582E",
"x. c #405112",
"c. c #415112",
"v. c #415213",
"b. c #405313",
"n. c #425213",
"m. c #4C7C11",
"M. c #844241",
/* pixels */
"} ) } } -.-.} -.} } } } ) ) ) ) ) } ) } -.-.-.} -.} } } } } } } } ) } ) ) ) ) } } } } } k _ _ _ _ } _ } ) ) -.} -.} } } } } } } ",
"%.o.| n n -.;.M.<.1.1.%.%.1.;.;.%.o.| n n -.,.M.<.1.1.%.%.| >.>.%.o.| n n } ;.M.>.,.,.%.$.*.$.*.$.o.| n ) -.} ;.M.2.;.;.;.| >.>.",
"o.| o.| 6 } 2.O.o.o.o.o.%.;.o.o.o.| o.| 6 } 2.O.o.o.o.%.O.>.O.o.o.| o.| 6 ) 2.O.o.o.o.*.o.o.o.o.O.O.y | 6 } -.,.O.o.o.o.%.>.O.o.",
"o.o.| o.l.l.l.y o.o.o.O.O.o.o.o.o.o.| o.t ) ;.o.o.o.%.O.o.O.o.o.o.o.| o.t } ;.o.o.o.$.o.o.o.o.o.y k.z.y t -.;.C o.o.o.O.O.O.o.o.",
"o.o.o.l.l.l.[ r y o.o.%.n o.o.o.o.o.o.o.l.' ' | o.o.o.*.n o.o.o.o.o.o.o.6 ) ;.o.o.;.o.o.o.*.n n 7 z.z.r 7 l.l.l.y o.o.*.n o.o.o.",
"o.o.o.z.l.[ { ' l.y o.n n o.o.o.o.o.o.z.z.z.[ - o.*.n n n o.o.o.o.o.o.| 6 } | o.o.$.n n o.n | 7 y [ z.} ' [ l.l.{ w o.n n o.o.o.",
"n o.o.7 X a [ z.z.z.| t t o.o.n n o.O.k.z.[ ' # > 6 n N | o.o.n n o.o.n 6 } | n n n n | o.o.7 l.{ ' 0 0 X * [ l.z.z | t t o.o.n ",
"t t 6 6 t g 7 { k.k.k.6 t t t t t ' ' { X 2   ' ' ' { % t     6 t t 6 6 t -.n 6 6 > t t t ; z.z.z.[ o o - 2 7 X - 7 6 6 t t t t ",
") ) } ) } } 4 l.' k.m.a ) ) l.l.' [ l.l.l.{ z.z.z.[ ' l.l.4 ) } } } } } } } ) ) ) ) ) } 4 k.k.k.{ 4 4 } } } } } } } } ) } } } ) ",
";.,.;.;.;.;.7 ' - # # 7 | z.z.z.[ 0 [ l.z.0 k.z.[ > [ ' z.z.- } ;.M.2.2.>.;.;.o.| n n n r m.k.l.} ' { C >.*.:.*.%.%.%.o.| n n -.",
">.O.o.o.o.o.y ' 0 s 7 | r k.z.[ r 1 r - r r r r - 1 - [ ' k.{ 4 ,.%.%.%.o.o.%.;.o.o.n | o.7 . 2 [ z.z.z.t o.o.o.o.o.o.O.o.| 6 } ",
";.o.o.%.o.o.s l.l.l.y r y - . ' v r r s | | | | r r r z.z.z.[ a %.o.%.o.O.%.o.o.o.o.o.o.o.n X a 1 [ z.k.t o.o.o.o.o.O.o.o.o.t -.",
"n o.| o.o.t l.l.l.[ ' ' l.l.' = v O.| | | | | | t t k.k.k.{ ' a v s O.o.O.o.o.o.o.o.| o.o.| 6 ) 1 ' - > y o.o.*.n n n | o.| 6 ) ",
"n | o.| o.| z.l.[ - l.[ z.z.z.= 7 | | | | | | n n t m.k.l.# l.' l.l.s O.o.o.| o.o.| o.o.o.o.t 4 l.l.' r y s o.n | n o.o.| | 6 } ",
"n n | o.| o.r , , z.z.z.[ z.k.a t n | t t t | t t | - 7 - o   [ z.z.z.r o.n o.o.o.o.o.o.o.o.X z.z.z.[ l.l.' ' l.l.t n | o.n 6 ) ",
"n 6 6 > t t t - k.k.k.{ .   ; -.t   6   6 6 6   6 6 6 6     X h { k.k.k.> t 6 t # t t 6 6   - k.z.[ z.z.z.[ [ ' z.z.- t 6 6 t } ",
") ) ) ) ) } ) } m.k.l.= g a } } } } } } } ) } ) ) ) ) } } } a a * ' k.m.4 } _ } ) ) -.&.-.} } a a = k.z.[ * = { k.k.k.g } } } } ",
"o.;.%.%.o.| n t n g b &.<.1.1.%.%.| >.>.%.o.| n n } ;.M.<.,.,.z z l.' l.z o.| n n -.} ;.M.2.;.;.;.r C p 7 1 ' # l.k.m.#.;.;.;.o.",
"o.%.| | | n | n   } 2.O.o.o.o.%.O.>.O.o.o.| o.| 6 ) 2.O.o.o.o.z z.z.z.[ s O.o.| > ' -.,.#.o.o.o.%.>.#.s > l.l.' . = b s | | | | ",
"O.| | | | | n | 7 _ ;.o.o.o.%.O.o.O.o.o.o.o.| o.t } ;.o.o.o.*.y k.z.[ ' s u o.o.t -.;.>.o.o.o.@.O.O.O.t s [ z.z.z.a %.| | | | O.",
"t | | | | | | |   } n | o.o.o.*.n o.o.o.o.o.o.o.6 k ;.o.o.*.o.y s 0 # ' l.' r | > ) o.| o.o.o.$.n t ' ' l.l.[ z.k.a t n | | | o.",
"t | | | | | | n   } | o.o.$.n n n o.o.o.o.o.o.| 6 } | o.o.%.n n u # z.z.z.[ ' ' l.l.| o.| o.o.n 7 ' [ z.z.z.> - X } n | | | | t ",
"6 | | t t | | t   } | n n n n n | o.o.n n o.o.n 6 } | n n n n | y k.k.k.{ - z.z.z.[ ' | $.o.| t l.' l.[ z.k.s 7 6 } n t t | n > ",
"6 6 6 6 6 6     6 -.n 6 6 $ t 6 t     6 t t 6 6 t -.n 6 6 6 t t - m.k.l.X X k.z.[ * ' l.{ 6 > z.z.z.[ X X - 6 6 t -.t           ",
"} ) } } } } } } } } k } } } ) 4 ) } ) } } ) ) } } ) } ) ) ) ) ) ) } 4 a a 4 g 4 1 a [ z.z.z.' k.z.[ a a a ) ) ) ) ) } ) } } ) ) ",
"M.,.>.>.*.>.%.%.%.%.o.| n n { { { %.%.%.%.t %.X.t t t n n t -.;.,.;.;.;.;.n o.o.$.*., [ z.k.l.0 f b ;.>.%.%.X.X.t t t n n t -.;.",
"o.o.;.O.o.O.O.o.o.o.O.o.| 6 [ l.l.l.| | | | o.%.| t n n |   } >.O.o.o.o.o.o.o.o.O.o.s - l.' { { { y o.| | o.%.| | t n | t   -.,.",
"| o.| o.o.o.o.o.o.O.o.o.o.t 2 [ l.l.o.| | | | | | | n | n   -.;.o.o.%.o.o.o.o.o.o.o.y z.z.z.[ l.l.l.r O.o.| | | | | | | t   } | ",
"o.| o.o.o.o.%.n n n | o.| 6 4 } r 7 | | | | n | | t n | n 6 } ;.o.o.o.o.o.o.o.n N 7 k.k.k.{ 1 [ l.l.| #.| | | | | n | | n   ) n ",
"| o.| o.o.o.n | n o.o.| | o l.l.' r n | n | | | n t | n |   } | o.o.o.o.o.o.| { { { m.k.' . g r y r +.| | n | | n | | | | 6 ) n ",
"n | o.| o.o.o.n o.n | o.n z.z.z.[ { { { | n | | n t n n t   } n | o.n n n o.l.l.l.[ ' l.# X } n | | | | t | | | | | | | |   ) n ",
"6 6 6 t 6 t t t t t t 6 X k.z.[ l.[ l.l.l.6 6 6 6 6       6 -.t 6 t > t t t l.l.[ ' X . X t -.i   6   6 6   > $ 6 6       6 ) n ",
") } } -.-.} -.} } } } _ ) 4 * * = l.[ l.l.-.} { l.l.l.' } } l.{ l.a ) ) ) ) a { ' l.= 4 ) ) ) ) } ) } ) ) -.} -.} } } } } } } } ",
"o.| n n -.%.2.;.;.;.o.o.;.%.z , z.z.z.[ ' l.' [ z.z.z.0 ' z.z.z.{ { { n } ;.&.[ z.z.z.z %.%.%.%.o.| n ) -.} ;.M.2.;.;.;.| >.>.%.",
"| o.| 6 } ;.O.| | | | o.%.| r k.k.k.{   l.z.[ , { k.k.k.f k.z.[ [ l.l.l.4 l.l.' { k.k.k.s o.o.o.O.o.| 6 } -.,.O.o.o.o.%.>.O.o.o.",
"o.| o.t } %.| | | | +.#.| | r m.k.l.- X z.z.[ , 1 l.k.m.f 1 1 1 l.[ l.l.z.z.z.[ - l.k.m.s o.o.O.o.o.o.t -.;.>.o.o.o.O.O.O.o.o.o.",
"o.o.o.6 } t n | | | o.t | | | r r r r   a k.; u y y v 7 y y > z.z.z.[ X k.z.[ , 0 - > s z n n n | o.| 6 ) o.| o.o.o.*.n o.o.o.o.",
"o.o.| 6 } n | | | | t t | | | | | | n   } r r u $.n n n o.o.s k.z.[ ' X = ' l.l.v 7 0 y n | n o.o.| | 6 ) | o.| o.o.n n o.o.o.o.",
"o.o.n 6 } n t t | n 7 6 | | t t | | t   } | n n n n n | o.o.n 7 , , ' . a ' z.z.z.7 | o.o.n o.n | o.n 6 ) n | o.o.| t t o.o.n n ",
"t 6 6 t -.t           6 6 6 6 6 6     6 -.  6 6 6 t > t     6 t - . l.l.' # [ z.k.- t t t t t t t 6 6 t ) n 6 t 6 $ 6 t t t t t ",
") ) ) } ) } } ) ) } } ) } ) ) ) ) ) ) } ) } } ) -.) -.} k k } j a z.z.z.[ = a 4 4 ) ) ) } ) } } ) ) } ) } } } } } } } } k } } } ",
"-.;.,.;.;.;.;.n ;.X.n n n | | n -.;.,.;.;.;.;.n o.o.*.$.o.| n n k.k.k.{ f C ;.;.o.| n N n | | ..-.;.M.,.>.>.;.<.%.%.$.*.o.| n n ",
"} >.O.o.o.o.o.o.%.;.o.n | | o.6 } >.O.o.o.o.o.o.o.o.O.o.O.o.| o m.k.l.{ { { o.%.;.o.o.n | o.n 6 -.,.o.o.;.o.o.o.o.o.o.o.o.o.| 6 ",
"-.;.o.o.%.o.o.o.o.o.o.o.| o.| 6 -.;.o.o.%.o.o.o.o.o.o.o.o.o.o.{ { { , [ l.l.l.o.o.o.o.o.o.o.n 6 } | | o.| o.o.o.o.o.o.O.o.o.o.t ",
") n o.| o.o.o.o.| o.o.n | o.| t } ;.O.o.o.o.o.o.o.n n n | O.l.l.l.[ l.l.[ l.l.o.o.o.o.| o.o.| 6 ) n o.| o.o.o.o.$.n n n | o.| 6 ",
"} n | o.| o.| o.o.o.| n o.| o.6 } | o.o.o.o.o.o.| | n o.o.o.l.{ [ [ z.z.z.s o.| o.o.| o.o.o.o.t ) n | o.| o.o.o.n | n o.o.| | 6 ",
") n n | o.| o.| o.o.| n | | n 6 } n | o.n n n o.n n o.n | o.n o a l.[ z.k.s n o.o.o.o.o.o.o.o.6 ) n n | o.| o.o.o.n o.n | o.n 6 ",
"} n 6 6 6 t t t t t t t 6 6   t -.n 6 t 6 t t t 6 t t t t 6 6 ; h - ' X . - ; 6 t # t t 6 6   t ) n 6 6 6 t 6 t t t t t t 6 6 t ",
") ) } ) } -.-.-.} -.} } } } } } } } ) } ) ) ) ) } } } } } k ) k 4 4 l.' l.l.l.g } -.} } } } } } } } ) } } -.-.} -.} } } } k _ _ ",
";.%.o.| n | -.;.M.<.1.1.%.%.| >.>.%.o.| n n } ;.M.<.,.,.$.$.*.$.z z.z.z.[ z.z.z.v 2.;.%.%.%.n >.>.o.| n t t -.,.M.<.1.1.*.$.1.;.",
"o.o.| o.| 6 } 2.O.o.o.o.%.O.>.O.o.o.| o.| 6 ) 2.O.o.o.o.*.o.o.o.u k.z.[ - { k.k.k.s | | | o.>.O.| | n | n   } 2.O.o.o.o.o.*.;.o.",
"o.o.o.| o.t ) ;.o.o.o.%.O.o.O.o.o.o.o.| o.t } ;.o.o.o.%.o.o.o.o.o.y , , , ' l.k.m.r | | O.O.O.| | | | n | 6 } ;.O.o.o.o.O.O.o.o.",
"o.o.o.o.o.6 } n | o.o.o.%.n o.o.o.o.o.o.o.6 ) ;.o.o.;.o.o.O.*.n n n r , ' ' l.- # r | | o.t | | | | | | |   } n | o.o.o.$.n o.o.",
"o.o.o.o.| 6 } | o.o.$.n n n o.o.o.o.o.o.| 6 } | o.o.%.n n o.n | n l.l.l.[ z.z.z.r n | | t t | | | | | | n   } | o.o.o.o.n n o.o.",
"n n o.o.n   } | n n n n n | N o.n n o.o.n 6 } | n n n n | o.o.n z.z.z.[ # [ z.k.7 | | n $ 6 | | t t | | t   } | n n o.| t t o.o.",
"t t t $   t ` n 6 6 > t > Q     6 t t 6 6 t -.n 6 6 6 t t { { { k.z.[ { { { 4     6   3.  6 6 6 6 6 6     6 -.n 6 6 6 > > t t q ",
"g ) } g ) ) 5 ) k } ) ` g f.h } _ } } } } } } } } ) } } l.l.l.[ l.* * [ l.l.l.} ) ' k g.^ ) ) ) } ) } } ) -.g -.} k ) ) ) } w.k ",
"y.:.#.b.B o.u w i n | | r n.V <.*.>.>.;.>.%.%.%.%.o.| n I l.[ z.z.z.8.r G l.I n i i t 0.r k %.x %.%.X.%.t | x v o.| n q t h p.=.",
"y.n y.x.n ;.w.v i q.o.i # n.] N 0.;.O.N #.B o.o.N v o.| + f.l.{ k.4.j.1 n %.#.n.w x t x.X 9.>.v x f.u | s | n q.| V | t   5 p.N ",
"x.L q.x.i B 0.x.N i ] i # 9.L x v q.o.N y.x x.i B w.i ] H H l.* H 4.a.A B i | y.Q n v 0.# y.X.s x x.u x t x u 0.t x t 0.# E c.v ",
"x.L ~ x.Q N i x.t w.0.x X L E v u q.K i x.n 6.Q r 0.0.U z.U [ X r - Q K i u i b.Q t x.6., ^ q.z u q.u Q u x.7 0., 0.u 0.  h.n.^ ",
"] q.Q y.Q 0.v Q v E x.K 3.q.A Q i Q q.v x.L x.Q v i E k.z.3 { { { t Q K i y.i L Q v d.] 6.g Q u x.q.u u 0.x.w 3.Q K w f.5.^ y.L ",
"0.L q.0.Q K i ] 0.L x.K 3.F 0.L 0.Q 0.Q x.L E L w Q y.7 . ' [ l.l.( K i K ] q.P f.0.L 0.T g Q f.q.A f.T L 3.A x.Q A L d.Z F 0.L ",
"F T L 6.D D 6.A Q A Q 5.A Q L A 5.A Q A 6.Q A A 6.Q A 6 - ' 8 [ l.( A Q A 6.K q.d.A A 5.A ^ A Z 6.Z 6.A d.Z A 6.A 6.Y 5.T ~ L A "
};
