/* XPM */
static char *_c495282a9ab486fd4c12d380160c1f81ZpEwiKzgCbr9tRU[] = {
/* columns rows colors chars-per-pixel */
"64 64 20 1 ",
"  c #170606",
". c #1B1B1A",
"X c #271911",
"o c #211815",
"O c #28221F",
"+ c #2E221C",
"@ c #3B2921",
"# c #463124",
"$ c #383F40",
"% c #4F4C48",
"& c #5B5952",
"* c #67625C",
"= c #79735E",
"- c #666A62",
"; c #756F64",
": c #807B6A",
"> c #89928C",
", c #93968B",
"< c #9F9F8B",
"1 c #A1A9A3",
/* pixels */
"@+@@##@#@@@@+++++@+@###@#@@@@@@@@+@++++@@@@@+++++@+@++#@#@@@@@@@",
"=*&%%#:1>::==:::=*&%%#,1>::==&::=*&%%@:1>,,======*&%+#@:1<:::&::",
"*&*&O@<-****=:***&*&O@<-***=-:-**&*&O+<-***=--***-*&O@#,-***=:-*",
"**&*$@:****--*****&*$+:***=-*-****&*$@:***=-****-***$#::***---**",
"****O@%&***;%*******O@%&***;%*******O+:**:**-;%%%&*&O+*&***;%***",
"***&O@&****%%******&O@&**;%%%******&O@&**;%%*%&%**&&O+&*&**%%***",
"%**%O@&%%*&$$**%%**%.@&%%%%%&**%%**%O@&%%%%&**%*%&*%O+%&**&$$**%",
"$$OO$#%OOOOO$$$$$$O.$#.OOO$O$..O$$OO$#%OOO$$$$$$$$OO$+%O$OOO$$$$",
"++@+@@++@@+@++++++@+@@+#+#@++++@@@@@@@+++++@+@@++@+@@@@@@@@+@@@+",
":,::::%:&%%%&&%#=:====$&&**&%$$@:1<<:::&&%%%&&##:1,::::====*&%%#",
":-*****=:*%&&*O@:-&&&&&&&-&-&%.+,===**=:**%&*%O#,**:-*--***-*&O@",
":**=*******&*&O#=&&*&&&&&&&&&&O@=*=*-=**&$***%O@&&*&******-***$#",
"%*&****&**%&*&$@=-&&&&&&$$$%&%.@=--*-**%..:**&O+%*&****;%&%&*&O+",
"%&*&*&***&%*&*O@%&&&&&&%%$&&%%.#*-*-**&&OO:***$+%&*&***%&%**&&O@",
"%%&*&*&**&%&&%O@$%&$$$&$$&$%&$.@&****%**:,****O+%%&*&***%*%&*%O+",
"%OOO$$$$$$$OO.$#$.O.OOO.OOOO..O#@O$O$$O$ $$OO.$+%OOO$O$$$$$$OO$@",
"+++++@+@###@#@@@@@@@@+@++++@@@@@+++++@+@++#@#@@@@@@@@+@@##@#@@@@",
"*:==*&%$%#+oooooXooXooooX@:1>,,==*%&**&%%#@:1<:::&::=*&%%#&<:::*",
"*=&&&%&%.@ooXoX+XXX+X+XXo+<-***=-%..:-*&O@#,-***=:-**&*&O@:-&&&&",
"-&&&&&%&O+oXoX+X+X+++X+X+@:***=-*$OO,***$#::***---****&*$@=&&&&-",
"$&&&&&&&.@oXX+X+++++++++X+:**:**-*:,*&*&O+*&***;%*******O@$%&&&*",
"$&&&&&&%.@oX+X+++++X+++XX@&**;%%*%&%**&&O+&*&**%%******&O@%&&&&$",
"O&&$$&&$.@X+X+++X+X+X+++X@&%%%%&**%*%&*%O+%&**&$$**%%**%O@%$$&%O",
"OOOOOO..O#+XXXXX+X+X+++X+#%OOO$$$$$$$$OO$+OO$OOO$$$$$$OO$#$.....",
"@+@@@@@@@@+@@@+++@+@@++@@+@++++++@+@@+#+#@++++@@@@@@@+++++@+@@++",
"1,::::====*&%%#=&====$=&$$$%%$#:,::::%**==*&%%@=<:::==&&$$$%%$#:",
"**:-*--***-*&O@:-&&&&&*=&$%%&.@:-*******-*-*&O+&***&&*=&&$%&$.#,",
"&*&******-***$#=&&*&&&&&&&%&%.#:**=**********$@*&*&-*&&&&&&&$.@&",
"*&****;%%%&*&O+$&%&&&&%&&$%&%O@:-******%&%&*&O@*--&-&&&&&%&&%.+%",
"&*&***%&%**&&O@$%&%&%&&&%$&%&.@&******&&%**&&O#&-&-&&%&&%&&&&O+%",
"%&*&***%*%&*%O+$$%&%&%&&%$%%$.@%&*%%%*%%*%&*%O@%&&&&$&&&&&&&&.+%",
"OOO$O$$$$$$OO$@$...OOOOOOO...O#$O$O$$$O$$$$OO$#$.O.OO.O OO...O+%",
"+@@##@#@@@@+++++@+@###@#@@@@@@@@+@++++@@@@@+++++@+@++#@#@@@@@@@@",
"*&%%#=<:::**:==*&%$$#,1>::==&::=*&%%@:1>,,======*&%+#@:1<:::&::=",
"&*&O@:-&&&&*=&&&%&%.@<-***=-:-**&*&O+<-***=--***-*&O@#,-***=:-**",
"*&*$@=&&&&--&&&&&%&O+:***=-*-****&*$@:***=-****-***$#::***---***",
"***O@$%&&&*$&&&&&&&.@%&***;%*******O+:**:**-;%%%&*&O+*&***;%****",
"**&O@%&&&&$$&&&&&&%.@&**;%%%******&O@&**;%%*%&%**&&O+&*&**%%****",
"**%O@%$$&%OO&&$$&&$.@&%%%%%&**%%**%O@&%%%%&**%*%&*%O+%&**&$$**%%",
"$OO$#$.....OOOOOO..O#.OOO$O$..O$$OO$#%OOO$$$$$$$$OO$+%O$OOO$$$$$",
"+++@+@@++@@+@++++++@+@@+#+#@++++@@@@@@@+++++@+@@++@+@@@@@@@@+@@@",
"#:,::::%:&%%%&&%#:,::::%**==*&%%@:1<<:::&&%%%&&$#:1,::::====*&%%",
"@:-*****=:*%&&*O@:-*******-*-*&O+,===**=:**%&*%O#,**:-*--***-*&O",
"#:**=*******&*&O#:**=**********$@=*=*-=*******%O@&&*&******-***$",
"+%*&****&**%&*&$@:-******%&%&*&O@=--*-*****&**&O+%*&****;%&%&*&O",
"@%&*&*&***&%*&*O@&******&&%**&&O#*-*-**&**&****$+%&*&***%&%**&&O",
"+%%&*&*&**&%&&%O@%&*%%%*%%*%&*%O@&****%********O+%%&*&***%*%&*%O",
"@%OOO$$$$$$$OO.$#%O$O$$$O$$$$OO$#$O$O$$O$ $$OO.$+%OOO$O$$$$$$OO$",
"++@+@###@#@@@@@@@@+@++++@@@@@+++++@+@++#@#@@@@@@@@+@@##@#@@@@+++",
":=*&%&#:1>::==&::=*&%%@:1>,,======*&%%#@=<:===%::*&%$$#,1>::==::",
"**&*&O@<-***=-:-**&*&O+<-***=--***-*&O@#&-&&&*:-&&%&%.@<-****=:*",
"***&*$+:***=-*-****&*$@:***=-****-***$#=:&&&---&&&&%&O@:****--**",
"*****O@%&***;%*******O+:**:**-;%%%&*&O+&%&&&*$&&&&&&&.@%&***;%**",
"****&O@&**;%%%******&O@&**;%%*%&%**&&O+%&%&&$$&&&&&&%.@&****%%**",
"%%**%.@&%%%%%&**%%**%O@&%%%%&**%*%&*%O+$%&&%OO&&$$&&$.@&%%*&$$**",
"$$$O.$#%OOO$O$..O$$OO$#%OOO$$$$$$$$OO$+..O...OOOOOO..O#%OOOOO$$$",
"@@@@+++++@+@@++@+@@@@@@@@+@@@+++@+@@++@@+@++++++@+@@+#+#@++++@@@",
"<<:::&&%%%&&%#:1,::::====*&%%#:,::::%:&%%%&&%#=&====$&&**&%$$@:1",
"==**=:**%&*%O#,**:-*--***-*&O@:-*****=:*%&&*O@:-&&&&&&&-&-&%.+,=",
"=*-=*******%O@&&*&******-***$#:**=*******&*&O#=&&*&&&&&&&&&&O@=*",
"-*-*****&**&O+%*&****;%&%&*&O+%*&****&**%&*&$@=-&&&&&&$$$%&%.@=-",
"*-**&**&****$+%&*&***%&%**&&O@%&*&*&***&%*&*O@%&&&&&&%%$&&%%.#*-",
"***%********O+%%&*&***%*%&*%O+%%&*&*&**&%&&%O@$%&$$$&$$&$%&$.@&*",
"$O$$O$ $$OO.$+%OOO$O$$$$$$OO$@%OOO$$$$$$$OO.$#O.O.OOO.OOOO..O#%O"
};
