/* XPM */
static char *ecb904001ae64e1bb1f1f4cf73f14c763AQ6Gol05gpsGpo7[] = {
/* columns rows colors chars-per-pixel */
"64 64 146 2 ",
"   c gray4",
".  c #0F0D0C",
"X  c gray6",
"o  c #170606",
"O  c #110D0A",
"+  c #130D0A",
"@  c #160F0C",
"#  c #19120D",
"$  c #001D17",
"%  c #131312",
"&  c #161312",
"*  c #141717",
"=  c #171716",
"-  c #1A1310",
";  c #1B1917",
":  c #1D1815",
">  c #1B1B1A",
",  c #1D1C1A",
"<  c #211713",
"1  c #211813",
"2  c #271B14",
"3  c #2A1D17",
"4  c #221D1A",
"5  c #271D18",
"6  c #0D2610",
"7  c #0E2711",
"8  c #0F2711",
"9  c #0F2A13",
"0  c #0F2A14",
"q  c #00221C",
"w  c #072E1B",
"e  c #102911",
"r  c #112C14",
"t  c #122D15",
"y  c #132E16",
"u  c #132E17",
"i  c #1B3313",
"p  c #1C3413",
"a  c #1C3414",
"s  c #1D3414",
"d  c #1E3514",
"f  c #1D3615",
"g  c #1D3716",
"h  c #183814",
"j  c #1F3817",
"k  c #103D1F",
"l  c #21201E",
"z  c #28221F",
"x  c #2E221C",
"c  c #322219",
"v  c #32221C",
"b  c #3B291E",
"n  c #3B2D1D",
"m  c #203A18",
"M  c #213A19",
"N  c #213B19",
"B  c #253F1D",
"V  c #002922",
"C  c #1F2324",
"Z  c #003422",
"A  c #083721",
"S  c #252321",
"D  c #252623",
"F  c #292623",
"G  c #2C2A22",
"H  c #2A2824",
"J  c #2E2C26",
"K  c #2C2A28",
"L  c #282C2C",
"P  c #3B2921",
"I  c #332F28",
"U  c #32312E",
"Y  c #2F3535",
"T  c #383531",
"R  c #393633",
"E  c #393932",
"W  c #383B36",
"Q  c #463124",
"!  c #413D37",
"~  c #413E38",
"^  c #433F3C",
"/  c #2C4615",
"(  c #234915",
")  c #2C4818",
"_  c #2D4918",
"`  c #2E4918",
"'  c #2F4B1B",
"]  c #304918",
"[  c #314A19",
"{  c #314C1B",
"}  c #314C1C",
"|  c #324F1D",
" . c #334F1D",
".. c #315216",
"X. c #3B5112",
"o. c #3D5212",
"O. c #3D5213",
"+. c #3E5313",
"@. c #3E5416",
"#. c #3D5913",
"$. c #33501E",
"%. c #35511E",
"&. c #36511F",
"*. c #316A1F",
"=. c #094227",
"-. c #16582E",
";. c #375422",
":. c #385522",
">. c #405313",
",. c #415616",
"<. c #425817",
"1. c #435818",
"2. c #435918",
"3. c #455A18",
"4. c #455B19",
"5. c #4C7C11",
"6. c #434034",
"7. c #47443B",
"8. c #49443E",
"9. c #383F40",
"0. c #494943",
"q. c #4D4A44",
"w. c #4F4C48",
"e. c #534D44",
"r. c #565040",
"t. c #57524C",
"y. c #5B5548",
"u. c #58584D",
"i. c #565851",
"p. c #5B5952",
"a. c #595D5A",
"s. c #66604E",
"d. c #6C6657",
"f. c #67625C",
"g. c #79735E",
"h. c #666A62",
"j. c #756F64",
"k. c #73746F",
"l. c #7C7D73",
"z. c #807B6A",
"x. c #868473",
"c. c #888C86",
"v. c #89928C",
"b. c #93968B",
"n. c #9F9F8B",
"m. c #A1A9A3",
/* pixels */
"P x P P Q Q P Q P P P P x x x x x P x P Q Q Q P Q P P P P P P P P x P x x x x P P P P P x x x x x P x P x x Q P Q P P P P P P P ",
"g.f.p.w.w.Q z.m.v.z.z.g.g.z.z.z.g.f.p.w.w.Q b.m.v.z.z.g.g.p.z.z.g.f.p.w.w.P z.m.v.b.b.g.g.g.g.g.g.f.p.w.x Q P z.m.n.z.z.z.p.z.z.",
"f.p.f.p.z P n.h.f.f.f.f.g.z.f.f.f.p.f.p.z P n.h.f.f.f.g.h.z.h.f.f.p.f.p.z x n.h.f.f.f.g.h.h.f.f.f.h.R p.z P Q b.h.f.f.f.g.z.h.f.",
"f.f.p.f.=.=.=.R f.f.f.h.h.f.f.f.f.f.p.f.9.x z.f.f.f.g.h.f.h.f.f.f.f.p.f.9.P z.f.f.f.g.h.f.f.f.f.W *.-.R 9.Q z.7.f.f.f.h.h.h.f.f.",
"f.f.f.=.=.=.V U R f.f.j.w.f.f.f.f.f.f.f.=.n n p.f.f.f.j.w.f.f.f.f.f.f.f.z x z.f.f.z.f.f.h.j.w.w.K -.-.U z =.=.=.R f.f.j.w.f.f.f.",
"f.f.f.-.=.V Z n =.R f.w.w.f.f.f.f.f.f.-.-.-.V S f.j.w.w.w.f.f.f.f.f.f.p.z P p.f.f.j.w.w.f.w.p.K R V -.n n V =.=.=.R f.w.w.f.f.f.",
"w.f.f.K & < V -.-.-.p.9.9.f.f.w.w.f.f.*.-.V n , K K w.w.p.f.f.w.w.f.f.w.z P p.w.w.w.w.p.f.f.K =.=.n S K & O V =.-.R p.9.9.f.f.w.",
"9.9.z z 9.2 K Z *.*.*.z 9.9.9.9.9.n n Z * #   n n n =.& 9.> > z 9.9.z z 9.Q w.z z z 9.9.9.C -.-.-.V & & C - K & C z z z 9.9.9.9.",
"x x P x P P - =.n *.5.< x x =.=.n V =.=.=.Z -.-.-.V n =.=.- x P P P P P P P x x x x x P - *.*.*.Z @ - P P P P P P P P x P P P x ",
"z.b.z.z.z.z.K n l , , K p.-.-.-.V J V =.-.G *.-.V S V n -.-.C P z.m.n.n.z.z.z.p.p.w.w.w.U 5.*.=.n n =.7.z.z.z.g.g.g.g.f.p.w.w.Q ",
"z.h.f.f.f.f.R n J R K p.U *.-.V J D U l U U U U l D l V n *.Z - b.g.g.g.f.f.g.z.f.f.w.p.f.K . # V -.-.-.W f.h.h.f.f.f.h.f.p.z P ",
"z.f.f.g.f.f.R =.=.=.R U R l . n 6.U U R p.p.p.p.U U U -.-.-.V < g.f.g.f.h.g.f.f.f.f.f.f.f.w.& < l V -.*.R f.f.f.f.f.h.f.f.f.9.Q ",
"w.f.p.f.f.R =.=.=.V n n =.=.n @ 6.h.p.p.p.p.p.p.9.9.*.*.*.Z n < 6.W h.f.h.f.f.f.f.f.p.f.f.p.z x K n l S R f.f.j.w.w.w.p.f.p.z x ",
"w.p.f.p.f.p.-.=.V l =.V -.-.-.@ K p.p.p.p.p.p.w.w.9.5.*.=.> =.n =.=.R h.f.f.p.f.f.p.f.f.f.f.9.- =.=.n U R R f.w.p.w.f.f.p.p.z P ",
"w.w.p.f.p.f.U S S -.-.-.V -.*.< 9.w.p.9.9.9.p.9.9.p.C K S -.-.V -.-.-.R f.w.f.f.f.f.f.f.f.f.& -.-.-.V =.=.n n =.=.R w.p.f.w.z x ",
"w.z z z 9.9.9.C *.*.*.Z .   C Q 9.> z > z z z > z z z z . -.& 2 Z *.*.*.C 9.z 9.o 9.9.z z > C *.-.V -.-.-.V V n -.-.C 9.z z 9.P ",
"x x x x x P x P 5.*.=.@ 2 < P P P P P P P x P x x x x P P P < < O n *.5.- P x P x x Q P Q P P < < @ *.-.V O @ Z *.*.*.2 P P P P ",
"f.z.g.g.f.p.w.9.w.2 7.a.v.z.z.g.g.p.z.z.g.f.p.w.w.P z.m.v.b.b.6.6.=.n =.6.f.p.w.w.Q P z.m.n.z.z.z.U 7.J G S n , =.*.5.u.z.z.z.f.",
"f.g.p.p.p.w.p.w.> P n.h.f.f.f.g.h.z.h.f.f.p.f.p.z x n.h.f.f.f.6.-.-.-.V -.-.f.p.z P Q b.h.f.f.f.g.z.h.R S =.=.n . @ 7.W p.p.p.p.",
"h.p.p.p.p.p.w.p.z x z.f.f.f.g.h.f.h.f.f.f.f.p.f.9.P z.f.f.f.g.W *.-.V n W -.f.f.9.Q z.z.f.f.f.h.h.h.f.R R V -.-.-.< g.p.p.p.p.h.",
"9.p.p.p.p.p.p.p.> P w.p.f.f.f.j.w.f.f.f.f.f.f.f.z x z.f.f.z.f.R W H , n =.n R p.z x f.p.f.f.f.j.w.R n n =.=.V -.*.< 9.w.p.p.p.f.",
"9.p.p.p.p.p.p.w.> P p.f.f.j.w.w.w.f.f.f.f.f.f.p.z P p.f.f.j.w.w.R , -.-.-.V n n =.=.p.f.p.f.f.w.K n V -.-.-.S l & P w.p.p.p.p.9.",
"z p.p.9.9.p.p.9.> P p.w.w.w.w.w.p.f.f.w.w.f.f.w.z P p.w.w.w.w.p.R *.*.*.Z l -.-.-.V n p.f.f.p.9.=.n =.V -.*.R K z P w.9.9.p.w.z ",
"z z z z z z > > z Q w.z z z 9.z 9.> > z 9.9.z z 9.Q w.z z z 9.9.C 5.*.=.* * *.-.V O n =.=.z z -.-.-.V * * C z z 9.Q 9.> > > > > ",
"P x P P P P P P P P x P P P x - x P x P P x x P P x P x x x x x x P - < < - 2 - # < V -.-.-.n *.-.V < < < x x x x x P x P P x x ",
"m.b.z.z.z.z.g.g.g.g.f.p.w.w.Z Z Z g.g.g.g.9.g.p.9.9.9.w.w.9.Q z.b.z.z.z.z.w.f.f.g.g.S V -.*.=.G E 7.z.z.g.g.p.p.9.9.9.w.w.9.Q z.",
"f.f.z.h.f.h.h.f.f.f.h.f.p.z V =.=.=.p.p.p.p.f.g.p.9.w.w.p.> P z.h.f.f.f.f.f.f.f.h.f.W S =.n Z Z Z R f.p.p.f.g.p.p.9.w.p.9.> Q b.",
"p.f.p.f.f.f.f.f.f.h.f.f.f.9.# V =.=.f.p.p.p.p.p.p.p.w.p.w.> Q z.f.f.g.f.f.f.f.f.f.f.R -.-.-.V =.=.=.U h.f.p.p.p.p.p.p.p.9.> P p.",
"f.p.f.f.f.f.j.w.w.w.p.f.p.z - n U K p.p.p.p.w.p.p.9.w.p.w.z P z.h.f.f.f.f.f.f.w.w.K *.*.*.Z @ V =.=.p.h.p.p.p.p.p.w.p.p.w.> x w.",
"p.f.p.f.f.f.w.p.w.f.f.p.p.& =.=.n U w.p.w.p.p.p.w.9.p.w.p.> P p.f.f.f.f.f.f.p.Z Z Z 5.*.n . 2 U W U h.p.p.w.p.p.w.p.p.p.p.z x w.",
"w.p.f.p.f.f.f.w.f.w.p.f.w.-.-.-.V Z Z Z p.w.p.p.w.9.w.w.9.> P w.p.f.w.w.w.f.=.=.=.V n =., & P w.p.p.p.p.9.p.p.p.p.p.p.p.p.> x w.",
"z z z 9.z 9.9.9.9.9.9.z & *.-.V =.V =.=.=.z z z z z > > > z Q 9.z 9.z 9.9.9.=.=.V n * . & 9.Q 9.> z > z z > z o z z > > > z x w.",
"x P P Q Q P Q P P P P x v # O O @ =.V =.=.Q P Z =.=.=.n P P =.=.=.< x x x x < Z n =.@ - x x x x P x P x x Q P Q P P P P P P P P ",
"f.p.w.w.Q g.n.z.z.z.f.f.z.j.! S -.-.-.V n =.b V -.-.-.G n -.-.-.Z Z Z w.P z.a.V -.-.-.6.g.g.g.g.f.p.w.x Q P z.m.n.z.z.z.p.z.z.g.",
"p.f.p.z P z.h.p.p.p.p.f.g.p.U *.*.*.Z   =.-.V S Z *.*.*.K *.-.V V =.=.=.- =.=.n Z *.*.*.W f.f.f.h.f.p.z P Q b.h.f.f.f.g.z.h.f.f.",
"f.p.f.9.P g.p.p.p.p.h.h.p.p.U 5.*.=.l - -.-.V S S =.*.5.W S S S =.V =.=.-.-.-.V S =.*.5.R f.f.h.f.f.f.9.Q z.z.f.f.f.h.h.h.f.f.f.",
"f.f.f.z P 9.w.p.p.p.f.9.p.p.p.I U U U X < *.l R R R ~ K R R S -.-.-.V & *.-.V S J S S W ! w.w.w.p.f.p.z x f.p.f.f.f.j.w.f.f.f.f.",
"f.f.p.z P w.p.p.p.p.9.9.p.p.p.p.p.p.w.> P U R R j.e.w.w.f.f.R *.-.V n & @ n =.=.! K K R w.p.w.f.f.p.p.z x p.f.p.f.f.w.w.f.f.f.f.",
"f.f.w.z P w.9.9.p.w.z z p.p.9.9.p.p.9.> P p.w.w.w.w.w.p.f.f.w.K S S n . < n -.-.-.K p.f.f.w.f.w.p.f.w.z x w.p.f.f.p.9.9.f.f.w.w.",
"9.z z 9.Q 9.> > > > , z z z z z S > , S Q > z S F W S 9.> > z 9.C . =.=.n , V -.*.C 9.9.9.9.9.9.9.z z 9.x w.z 9.z z z 9.9.9.9.9.",
"x x x P x P P x x P P x P x x x v x x P x P P x Q x Q P x x x x < -.-.-.V @ < - - x x x P x P P x x P x P P P P P P P P x P P P ",
"Q z.b.z.z.z.z.w.z.p.w.w.w.p.p.w.Q z.b.z.z.z.z.w.f.f.g.g.f.p.w.w.*.*.*.Z E 7.z.z.p.p.w.w.w.p.p.9.Q z.m.b.z.z.z.z.g.g.g.g.f.p.w.w.",
"P z.h.f.f.f.f.f.g.z.f.w.p.p.f.z P z.h.f.f.f.f.f.f.f.h.f.h.f.p.& 5.*.=.Z Z Z f.g.z.f.f.w.p.f.w.z Q b.f.f.z.h.f.h.h.f.f.f.h.f.p.z ",
"Q z.f.f.g.f.f.f.f.f.f.f.p.f.p.z Q z.f.f.g.f.f.f.f.f.f.f.f.f.f.Z Z Z S V =.=.=.f.f.f.f.f.f.f.w.z P p.p.f.p.f.f.f.f.f.f.h.f.f.f.9.",
"x w.f.p.f.f.f.f.p.f.f.w.p.f.p.9.P z.h.f.f.f.f.f.f.w.w.w.p.f.=.=.=.V =.=.V =.=.f.f.f.f.p.f.f.p.z x w.f.p.f.f.f.f.j.w.w.w.p.f.p.z ",
"P w.p.f.p.f.p.f.f.f.p.w.f.p.f.z P p.f.f.f.f.f.f.p.p.w.f.f.p.=.=.V V -.-.-.R f.p.f.f.p.f.f.f.f.9.x w.p.f.p.f.f.f.w.p.w.f.f.p.p.z ",
"x w.w.p.f.p.f.p.f.f.p.w.p.p.w.z P w.p.f.w.w.w.f.w.w.f.w.p.f.w.& < =.V -.*.R w.f.f.f.f.f.f.f.f.z x w.w.p.f.p.f.f.f.w.f.w.p.f.w.z ",
"P w.z z z 9.9.9.9.9.9.9.z z > 9.Q w.z 9.z 9.9.9.z 9.9.9.9.z z C 2 * n * . C C z 9.o 9.9.z z > 9.x w.z z z 9.z 9.9.9.9.9.9.z z 9.",
"x x P x P Q Q Q P Q P P P b Q b P P v P x x x x P P P P P x x x - # =.n =.=.=.2 P Q P P P P P P P P x P P Q Q P Q P P P P x x x ",
"z.g.f.p.w.p.Q z.m.v.z.z.j.j.t.z.z.g.f.p.w.w.P z.m.v.b.b.g.g.g.g.6.-.-.-.V -.-.-.! n.z.g.g.g.w.z.z.f.p.w.9.9.Q b.m.v.z.z.g.g.z.z.",
"f.f.p.f.p.z P n.h.f.f.f.j.h.z.h.f.f.p.f.p.z x n.h.f.f.f.g.h.h.f.R *.-.V 4 Z *.*.*.W p.p.p.f.z.h.p.p.w.p.w.> P n.h.f.f.f.f.g.z.f.",
"f.f.f.p.f.9.v z.f.f.f.j.h.f.h.f.f.f.f.p.f.9.P z.f.f.f.g.h.f.f.f.f.W z D D P =.*.5.U p.p.h.h.h.p.p.p.p.w.p.z P z.f.f.f.f.h.h.f.f.",
"f.f.f.f.f.z P w.p.f.f.f.j.w.f.f.f.f.f.f.f.z c l.f.f.z.f.f.h.j.w.w.w.U S n n =.S , U p.p.f.9.p.p.p.p.p.p.p.> P w.p.f.f.f.j.w.f.f.",
"f.f.f.f.p.z P p.f.f.j.w.w.w.f.f.f.f.f.f.p.z b p.f.f.j.w.w.f.w.p.w.=.=.=.V -.-.-.U e.p.p.9.9.p.p.p.p.p.p.w.> P p.f.f.f.f.w.w.f.f.",
"w.w.f.f.w.> P a.w.w.w.w.w.p.t.f.w.w.f.f.q.S P p.w.w.w.w.p.f.f.w.-.-.-.V , V -.*.K p.p.w.4 z p.p.9.9.p.p.9.> P p.w.w.f.p.9.9.f.f.",
"9.9.9.l > ;.P w.z z z 9.z g & 4 z 9.9.z z 9.Q w.z z z 9.9.Z Z Z *.-.V Z Z Z - O , S > X.= z z z z z z > > z Q w.z z z z z 9.9.Y ",
"3 v P 3 x x 2 3 x P x P 3 o.3 P x P P P P P P P P x P P =.=.=.V =.O + V =.=.=.P x P x @.i x x x P x P P x Q 5 Q P x x x x P ] v ",
":.x.y.3.t.p.~ T ^ w.p.p.T >.t.c.l.z.z.z.z.g.g.g.j.f.p.q.A =.V -.-.-.| I q =.A q.^ ~ ~ | T c g.q.g.g.s.g.9.p.q.8.f.p.w.Y 9.3 &.k.",
"&.r.| 1.r.z.| 8.^ } f.^ < >.B t. .z.h.t.h.i.f.f.t.q.f.p.: @.=.Z *.( #.F t.g.d.1.R q.~ 2.: ] z.0.q.<.~ p.~ p.q.$.p.i.p.^ * 1 ;.r.",
"3.y &.3.8.t.| 1.t.0.M ^ : ] r q.8.| f.t. .8.3.8.u. .8.N w w =.; w ( ..0 t.0.t. .N q.8.| : ] s.~ q.2.~ q.~ q.! $.~ q.~ | : s 3.8.",
"2.y N 3.N t.8.1.~ | | q.: 8 m 8.~ | y 8.,.e.| j R | | k -.k V ; U F s t 8.! 8.1.j ~ 2.| L d &.0.~ | ~ j ! ,.L ' L | ~ ] & +.3.N ",
"N | N | N  .8.M 8.N 1.y @.` r m 8.j | 8.2.y ,.j 8.8.m *.-.$ Z Z Z ! N r 8. .8.r j 7.,.N ) 3 j ! <.| ~ ~ | ,.T @.j y R ,.) d | y ",
"$.u | [ N r 0.N  .y 1.y @.8 ] r | N | N 1.y j y T N | K . n V =.=.g r 0.r N  .r @.$.y | p 3 g @.| 9 @.j y @.9 ,.s y y @.6 9 | y ",
"0 s 0 [ 8 8 / 0 s 8 i ) 9 s r 8 ) 9 s 9 ' s 0 9 ' s 8 z C n K V =.h 0 g 0 ' r [ @.8 8 _ 0 s 8 6 ) 6 ) 9 X.6 9 ) 9 ) i / i d y 8 "
};
