/* XPM */
static char *_fbfe0ec503847f794c4a8811820a1edhvBQocVY1peVu5pI[] = {
/* columns rows colors chars-per-pixel */
"64 64 96 2 ",
"   c black",
".  c #150505",
"X  c #170606",
"o  c #1A0606",
"O  c #1E090A",
"+  c #1E1611",
"@  c #200707",
"#  c #250C0D",
"$  c #270D0C",
"%  c #2E0E0F",
"&  c #2D100F",
"*  c #31100F",
"=  c #2F1210",
"-  c #261A15",
";  c #251C17",
":  c #2E1F17",
">  c #321210",
",  c #371312",
"<  c #321412",
"1  c #3C1313",
"2  c #391613",
"3  c #3B1713",
"4  c #3B1714",
"5  c #3E1715",
"6  c #3E1A15",
"7  c #3F1916",
"8  c #3E1917",
"9  c #0A240D",
"0  c #0D250E",
"q  c #0F250F",
"w  c #0F2711",
"e  c #102610",
"r  c #112610",
"t  c #112711",
"y  c #102911",
"u  c #173110",
"i  c #1B3111",
"p  c #1C3211",
"a  c #1D3213",
"s  c #1E3313",
"d  c #1F3313",
"f  c #1C3413",
"g  c #1F3413",
"h  c #1D3414",
"j  c #1E3514",
"k  c #2E221C",
"l  c #30201B",
"z  c #38271D",
"x  c #223615",
"c  c #3B2921",
"v  c #451816",
"b  c #431F1C",
"n  c #491D18",
"m  c #491C19",
"M  c #4D1C1A",
"N  c #4D1F1D",
"B  c #4E1F1C",
"V  c #472019",
"C  c #58221F",
"Z  c #5B231E",
"A  c #5D2B21",
"S  c #552A29",
"D  c #463124",
"F  c #612723",
"G  c #652F29",
"H  c #68312E",
"J  c #74362A",
"K  c #693433",
"L  c #713633",
"P  c #7E3C34",
"I  c #394F0F",
"U  c #2A4615",
"Y  c #2C4615",
"T  c #2E4716",
"R  c #2E4918",
"E  c #304716",
"W  c #304816",
"Q  c #314818",
"!  c #304918",
"~  c #314918",
"^  c #324918",
"/  c #334919",
"(  c #314A19",
")  c #354B19",
"_  c #354B1A",
"`  c #3C5010",
"'  c #3D5010",
"]  c #3E5112",
"[  c #3D5212",
"{  c #3E5313",
"}  c #405112",
"|  c #415112",
" . c #415213",
".. c #405313",
"X. c #425213",
"o. c #844241",
/* pixels */
"c k c c D D c D c c c c k k k k k c k c D D D c D c c c c c c c c k c k k k k c c c c c k k k k k c k c k k D c D c c c c c c c ",
"Z M v 1 1 D F o.K L L Z Z L F F Z M v 1 1 D J o.K L L Z Z v H H Z M v 1 1 c F o.K J J Z Z Z Z Z Z M v 1 k D c F o.P F F F v H H ",
"M v M v @ c P N M M M M Z F M M M v M v @ c P N M M M Z N H N M M v M v @ k P N M M M Z N N M M M N M v @ c D J N M M M Z H N M ",
"M M v M % c F M M M M N N M M M M M v M % k F M M M Z N M N M M M M v M % c F M M M Z N M M M M N M M M % D F H M M M N N N M M ",
"M M M M @ c 1 v M M M Z 1 M M M M M M M @ c 1 v M M M Z 1 M M M M M M M @ k F M M F M M N Z 1 1 1 v M v @ k M v M M M Z 1 M M M ",
"M M M v @ c v M M M M 1 1 M M M M M M v @ c v M M Z 1 1 1 M M M M M M v @ c v M M Z 1 1 M 1 v 1 M M v v @ k v M v M M 1 1 M M M ",
"1 M M 1 @ c v 1 1 M v % % M M 1 1 M M 1   c v 1 1 1 1 1 v M M 1 1 M M 1 @ c v 1 1 1 1 v M M 1 M 1 v M 1 @ k 1 v M M v % % M M 1 ",
"% % @ @ % D 1 @ o O @ @ % % % % % % @   % D   @ O @ % @ %     @ % % @ @ % D 1 @ o O % % % % % % % % @ @ % k 1 @ % O @ @ % % % % ",
"k k c k c c k k c c k c k k k k k k c k c c k D k D c k k k k c c c c c c c k k k k k c k c c k k c : c c c c c c c c : c c c k ",
"F J F F F F 1 F M 1 1 1 v v 1 D Z F Z Z Z Z % v v M M M 1 % % c F o.P P H F F m m 1 1 1 v v D D F o.J H H F H Z Z Z Z M v 1 1 D ",
"H N M M M M M Z F M 1 v v M @ c F N v v v v v v v N v V v 1   l J Z Z Z M M Z F M M 1 v M 1 @ D J M M F N M N N M M M N M v @ c ",
"F M M Z M M M M M M M v M v @ D Z v v M v v v v v v v v v v @ c Z M Z M N Z M M M M M M M 1 @ c v v M v M M M v M M N M M M % D ",
"1 M v M M M M v M M 1 v M v % c Z N v v v v v v % % % 1 v 1   c Z N N M N M M M M M v M M v @ k 1 M v M M M M A 1 1 1 v M v @ k ",
"1 v M v M v M M M v 1 M v M @ c 1 v v v v v v 1 1 % v v 1 1   D M N M N M M v M M v M M M M % k 1 v M v M M M 1 v 1 M M v v @ c ",
"1 1 v M v M v M M v 1 v v 1 @ c % 1 v % % % v % % v % 1 v %   c v M M M M 1 M M M M M M M M @ k 1 1 v M v M M M 1 M 1 v M 1 @ k ",
"1 @ @ @ % % % % % % % @ @   % D %   @   @ @ @   @ @ @ O     @ D c @ % @ % % @ % X % % @ @   % k 1 @ @ @ % @ % % % % % % @ @ % c ",
"k k k k k c k c D D D c D c c c c c c c c : c : l l k c c c c c k k k k k c k c k k D c D c c c c c c c c l c c D D c D c c c c ",
"M F Z Z M v 1 % 1 D F o.K L L Z Z v H H Z M v 1 1 c A o.K L J C Z Z Z Z Z M v 1 1 D c F o.P F F F v H H Z M v 1 1 D v P F F F M ",
"M Z v v v 1 v 1   c P N M M M A N H N M M v N v @ l P N M M M A N N M M M N M v @ c D J N M M M A H N M M v M v @ c F N v v v v ",
"N v v v v v 1 v @ l F M M M Z V N N M M M M v N % c F M M M Z M M M M M N M M M % D F H M M M N N N M M M M v M % c C v v v v N ",
"% v v v v v v v   c 1 v M M M A 1 M M M M M M M @ : F M M A M M N C 1 1 1 v M v @ k M v M M M C 1 M M M M M M M @ c % 1 v v v M ",
"% v v v v v v 1   c v M M C 1 1 1 M M M M M M v @ c v M M A 1 1 M 1 v 1 M M v v @ k v M v M M 1 1 M M M M M M v @ c 1 v v v v % ",
"@ v v % % v v %   c v 1 1 1 1 1 v M N 1 1 M M 1 @ c v 1 1 1 1 v M M 1 M 1 v M 1 @ k 1 v M M v % % M M 1 1 M M 1 @ c 1 % % v 1 @ ",
"@ @ @ @ @ @     @ D 1 @ @ o % @ %     @ % % @ @ % D 1 @ @ @ % % % % % % % % @ @ % k @ @ % @ o o % % % % % % @ @ % D %           ",
"c k c c c c c c c c k c c c k k l c l c c k k c c k c k k k k k k c k c c k D k D c : l l l c c c c c c c : l : k k c k c c k k ",
"o.J H H F H Z Z Z Z M v 1 1 D Z v Z C A Z % Z m % % % 1 1 % D F J F F F F 1 M M C A M v 1 1 c A P F A H C A m M % % % 1 1 % D F ",
"M M F N M N N M M M N M v @ c H M v v v v v M Z v % 1 1 v   c H N M M M M M M M N M N M v O l v M M M v v M A v v % 1 v %   D J ",
"v M v M M M M M M N M M M % D Z v v M v v v v v v v 1 v 1   D F M M Z M M M M M M M M M N % c M v M v N M v v v v v v v %   c v ",
"M v M M M M Z 1 1 1 v M v @ k % v 1 v v v v 1 v v % 1 v 1 @ c F N M M M M M M 1 1 1 v M v @ c N N N v N v v v v v 1 v v 1   k 1 ",
"v M v M M M 1 v 1 M M v v @ c % 1 v 1 v 1 v v v 1 % v 1 v   c v M M M M M M v v 1 M M v v @ D v N v N v v 1 v v 1 v v v v @ k 1 ",
"1 v M v M M M 1 M 1 v M 1 @ l % % 1 v 1 v 1 v v 1 % 1 1 %   c 1 v M 1 1 1 M 1 1 M 1 v M 1 @ c 1 v v v v % v v v v v v v v   k 1 ",
"@ @ @ % @ % % % % % % o @ % c %       @ @ @ @ @ @ @       @ D % @ % @ % % % @ % % % % @ @ % D %   @   @ @   @ X @ @       @ k 1 ",
": c c D D c D c c c c k l l k : c k c D D D c D c c c c c c c c k c k k k k c c c c c : l l : k c k c k k D c D c c c c c c c c ",
"M v 1 1 D A P F F F M M A C A M v 1 % % D J o.K L L C A v H H A M v 1 1 c F o.K J J Z Z C A C A M v 1 k D c F o.P F F F v H H Z ",
"v M v @ c F N v v v v M C v v v 1 v 1   c P N M M M C M H N M M v M v @ k P N M M M Z N M M M M N M v @ c D J N M M M Z H N M M ",
"M v M % c C v v v v N N v v v v v 1 v @ : F M M M Z N M N M M M M v M % c F M M M Z N M M M M N M M M % D F H M M M N N N M M M ",
"M M M @ c % 1 v v v M % v v v v v v v   c 1 v M M M C 1 M M M M M M M @ k F M M F M M N C 1 1 1 v M v @ k M v M M M C 1 M M M M ",
"M M v @ c 1 v v v v % % v v v v v v 1   c v M M C 1 1 1 M M M M M M v @ c v M M C 1 1 M 1 v 1 N M v v @ k v M v M M 1 1 M M M M ",
"M M 1 @ c 1 % > v 1 @ @ v v % % v v %   c v 1 1 1 1 1 v M M 1 1 M M 1 @ c v 1 1 1 1 v M M 1 N 1 v M 1 @ k 1 v M M v % % M M 1 1 ",
"% @ @ % D %           @ @ @ @ O @     @ D   @ @ @ % @ %     O % % @ @ % D 1 @ @ @ % % % % % % % % @ @ % k 1 @ % @ @ @ % % % % % ",
"l k : c k c c k : c c c c : l l k k k c k c c k D l D c : l l l c c c c c c c k k k k k c k c c k k c k c c c c c c c c k c c c ",
"D F J F F F F 1 F v 1 1 1 v v 1 D F J F F F F 1 M M C A M v 1 1 c F o.P P H F F v M 1 1 1 v v b D F o.J H H F H Z Z Z Z M v 1 1 ",
"c K N M M M N M A F M 1 v v M o c K N M M M M M M M N M N M v O k J Z Z Z M M Z F M M 1 v M 1 @ D J M M F N M N N M M M N M v @ ",
"D F M M C M M M M M M M v M v O D F M M A M M M M M M M M M M % c Z M Z M N Z M M M M M M M 1 @ c v v M v M M M M M M N M M M % ",
"l 1 M v M M M M v M M 1 v M v % c F M M M M M M M 1 1 1 v M v @ c Z N N M N M M M M M v M M v @ k 1 M v M M M M C 1 1 1 v M v @ ",
"c 1 v M v M v M M M v 1 M v M @ c v M M M M M M v v 1 M M v v @ D M N M N M M v M M v M M M M % k 1 v M v M M M 1 v 1 M M v v @ ",
"k 1 1 v M v M v M M v 1 v v 1 @ c 1 v M 1 1 1 M 1 1 M 1 v M 1 @ c v M M M M 1 M M M M M M M M @ k 1 1 v M v M M M 1 M 1 v M 1 @ ",
"c 1 @ @ @ % % % % % % % @ @   % D 1 @ % o % % % @ % % % % @ @ % D v o % @ % % @ % o % % @ @   % k 1 @ @ @ % @ % % % % % % @ @ % ",
"k : c l c D D D c D c c c c c c c c l c l k k k c c c c c : l : k l c l c k k D c D c c c c c c c c k c c D D c D c c c c : : c ",
"F A N v 1 v D F o.K L L C C v H H Z M v 1 1 c F o.K J J Z C A C A Z B v 1 1 D c Z P F Z Z Z 1 H H M v 1 % % D J o.K L L A C K A ",
"M M v v v @ c P N M M M A N H M M M v M v @ k P N M M M A M N M M M V B v @ c D v N v v v M K B v v 1 v 1   c P N M M M M Z F M ",
"M M N v M % k F M M M A M M M M M M M v N % c F M M M Z N M M v M M M M M % D Z H v v v N N V v v v v 1 v @ c F N M M M N N M M ",
"M M M M M @ c 1 v M M M C 1 M M M M M M M @ k F M M F M M N A 1 1 1 v M v @ k v 1 v v v M % v v v v v v v   c 1 v M M M C 1 M M ",
"M M M M v @ c v M v A 1 1 1 M M M M M M v o c v M M Z 1 1 M 1 v 1 M M v v @ k 1 v 1 v v % % v v v v v v 1   c v M M M M 1 1 M M ",
"1 1 M M 1   c v 1 1 1 1 1 v 1 M 1 1 M M 1 @ c v 1 1 1 1 v M M 1 M 1 v M 1 @ l % 1 v v 1 o @ v v % % v v %   c v 1 1 M v % % M M ",
"% % % o   % c 1 @ @ @ % @ j     @ % % @ @ % D 1 @ @ @ % % % % % % % % @ @ % k     @   I   @ @ @ @ @ @     @ D 1 @ @ @ @ @ % % # ",
"- l c - k k + k k c l c - { ; c k c c c c c c c c k c c c c l l c : : c c : c c k c k ] g k k k c k c c k D ; D c l : k k c / : ",
"_ G V X.8 M > $ % 1 v v $ X.v K A H H F H Z Z Z Z M v 1 % D F J F F Q 8 % A 1 1 * * & W $ : Z , Z Z n Z & v , * M v 1 # % ; / S ",
"! 1 ! } 2 F Q > * Q M % X X.x 1 Q F V v N 8 M M 1 < M v . [ H V M % X., 1 A N ] $ , & } . ! H < , } & v & v 1 W v 8 v %   + _ 8 ",
"X.y ! } < 1 ! } v % x % . R y , , E N 1 Q > } > 8 ! > j O : } > < 4 Q r 8 % 8 / d , > W . R m & , } & , & , & W % , % Q . h  .> ",
"X.r d } d 1 > } % Q Q , . w j > & W r > | 2 T d $ ! ! = i + d * E % x r % % >  .d & ] W O g W < & W & g & } O T O W & W   { X.j ",
"x ! x ! d E > j > d | r ` R w j * d ! > | r ] d > > j T 9 - T } r % x r , Q > r d * } d U - d & } W & & W ] $ ' d r $ ] U j Q t ",
"Q r E E d r > j Q r | r ` w T r E d E d | r d r # d Q E i T T d r x r % r d Q r ] E r E i - i ] W 0 ' d r ' 0 } p r t | 9 w Q r ",
"q i q T q q T 0 i 0 i U w i q q Y 9 d 9 T d 0 0 T i q q d T d 9 q i q i q T w T ] 0 0 U 0 j 0 9 T 9 T 9 ' 9 0 Y 0 Y y U i j w w "
};
